<?xml version="1.0" encoding="UTF-8" standalone="no"?>
<!DOCTYPE svg PUBLIC "-//W3C//DTD SVG 1.1//EN"
 "http://www.w3.org/Graphics/SVG/1.1/DTD/svg11.dtd">
<!-- Generated by graphviz version 2.46.1 (20210213.1702)
 -->
<!-- Title: G Pages: 1 -->
<svg width="845pt" height="485pt"
 viewBox="0.00 0.00 845.00 485.00" xmlns="http://www.w3.org/2000/svg" xmlns:xlink="http://www.w3.org/1999/xlink">
<g id="graph0" class="graph" transform="scale(1 1) rotate(0) translate(4 481)">
<title>G</title>
<!-- bbbbbbbbbbbbbbbbbbbbbbbbbbbbbbbbb -->
<g id="bbbbbbbbbbbbbbbbbbbbbbbbbbbbbbbbb" class="node">
<title>bbbbbbbbbbbbbbbbbbbbbbbbbbbbbbbbb</title>
<ellipse   cx="18" cy="-293.5" rx="18" ry="18"/>
</g>
<!-- a377e826e43a14e3aaf81f673fb27e960 -->
<g id="a377e826e43a14e3aaf81f673fb27e960" class="node">
<title>a377e826e43a14e3aaf81f673fb27e960</title>
<polygon   points="72,-275.5 72,-311.5 179,-311.5 179,-275.5 72,-275.5"/>
<text text-anchor="middle" x="107.5" y="-289.8" font-family="Times New Roman,serif" font-size="14.00">10 papers</text>
<polyline   points="143,-275.5 143,-311.5 "/>
<text text-anchor="middle" x="161" y="-289.8" font-family="Times New Roman,serif" font-size="14.00">test</text>
</g>
<!-- bbbbbbbbbbbbbbbbbbbbbbbbbbbbbbbbb&#45;&gt;a377e826e43a14e3aaf81f673fb27e960 -->
<g id="bbbbbbbbbbbbbbbbbbbbbbbbbbbbbbbbb_a377e826e43a14e3aaf81f673fb27e960" class="edge">
<title>bbbbbbbbbbbbbbbbbbbbbbbbbbbbbbbbb:e&#45;&gt;a377e826e43a14e3aaf81f673fb27e960:w</title>
<path   d="M36,-293.5C36,-293.5 51.14,-293.5 61.78,-293.5"/>
<polygon   points="62,-297 72,-293.5 62,-290 62,-297"/>
</g>
<!-- ae45a517e1fef41abbfdbccfc12f68ed0 -->
<g id="ae45a517e1fef41abbfdbccfc12f68ed0" class="node">
<title>ae45a517e1fef41abbfdbccfc12f68ed0</title>
<polygon   points="215,-385.5 215,-421.5 323,-421.5 323,-385.5 215,-385.5"/>
<text text-anchor="middle" x="247.5" y="-399.8" font-family="Times New Roman,serif" font-size="14.00">2 papers</text>
<polyline   points="280,-385.5 280,-421.5 "/>
<text text-anchor="middle" x="301.5" y="-399.8" font-family="Times New Roman,serif" font-size="14.00">test2</text>
</g>
<!-- a377e826e43a14e3aaf81f673fb27e960&#45;&gt;ae45a517e1fef41abbfdbccfc12f68ed0 -->
<g id="a377e826e43a14e3aaf81f673fb27e960_ae45a517e1fef41abbfdbccfc12f68ed0" class="edge">
<title>a377e826e43a14e3aaf81f673fb27e960:e&#45;&gt;ae45a517e1fef41abbfdbccfc12f68ed0:w</title>
<path   d="M179,-293.5C179,-293.5 202.99,-366.82 211.81,-393.74"/>
<polygon   points="208.56,-395.08 215,-403.5 215.22,-392.91 208.56,-395.08"/>
</g>
<!-- a83f19fc2f66f43acab71b6e7660d09a1 -->
<g id="a83f19fc2f66f43acab71b6e7660d09a1" class="node">
<title>a83f19fc2f66f43acab71b6e7660d09a1</title>
<polygon   points="215,-193.5 215,-229.5 323,-229.5 323,-193.5 215,-193.5"/>
<text text-anchor="middle" x="247.5" y="-207.8" font-family="Times New Roman,serif" font-size="14.00">7 papers</text>
<polyline   points="280,-193.5 280,-229.5 "/>
<text text-anchor="middle" x="301.5" y="-207.8" font-family="Times New Roman,serif" font-size="14.00">test3</text>
</g>
<!-- a377e826e43a14e3aaf81f673fb27e960&#45;&gt;a83f19fc2f66f43acab71b6e7660d09a1 -->
<g id="a377e826e43a14e3aaf81f673fb27e960_a83f19fc2f66f43acab71b6e7660d09a1" class="edge">
<title>a377e826e43a14e3aaf81f673fb27e960:e&#45;&gt;a83f19fc2f66f43acab71b6e7660d09a1:w</title>
<path   d="M179,-293.5C179,-293.5 201.41,-242.45 210.87,-220.91"/>
<polygon   points="214.18,-222.06 215,-211.5 207.78,-219.25 214.18,-222.06"/>
</g>
<!-- af8326c6872c24a99a2565c1a8bc5dec5 -->
<g id="af8326c6872c24a99a2565c1a8bc5dec5" class="node">
<title>af8326c6872c24a99a2565c1a8bc5dec5</title>
<polygon   points="404,-440.5 404,-476.5 792,-476.5 792,-440.5 404,-440.5"/>
<text text-anchor="middle" x="543" y="-454.8" font-family="Times New Roman,serif" font-size="14.00">First vs. best improvement: An empirical study</text>
<polyline   points="682,-440.5 682,-476.5 "/>
<text text-anchor="middle" x="737" y="-454.8" font-family="Times New Roman,serif" font-size="14.00">Hansen2006First</text>
</g>
<!-- ae45a517e1fef41abbfdbccfc12f68ed0&#45;&gt;af8326c6872c24a99a2565c1a8bc5dec5 -->
<g id="ae45a517e1fef41abbfdbccfc12f68ed0_af8326c6872c24a99a2565c1a8bc5dec5" class="edge">
<title>ae45a517e1fef41abbfdbccfc12f68ed0:e&#45;&gt;af8326c6872c24a99a2565c1a8bc5dec5:w</title>
<path   d="M323,-403.5C323,-403.5 359,-431.5 359,-431.5 359,-431.5 381.24,-445.15 394.1,-453.04"/>
<polygon   points="392.65,-456.25 403,-458.5 396.31,-450.29 392.65,-456.25"/>
</g>
<!-- a587b5199d77b4479ab2030ba474edf53 -->
<g id="a587b5199d77b4479ab2030ba474edf53" class="node">
<title>a587b5199d77b4479ab2030ba474edf53</title>
<polygon   points="359,-385.5 359,-421.5 837,-421.5 837,-385.5 359,-385.5"/>
<text text-anchor="middle" x="514" y="-399.8" font-family="Times New Roman,serif" font-size="14.00">Subclasses of k&#45;trees: Characterization and recogn...</text>
<polyline   points="669,-385.5 669,-421.5 "/>
<text text-anchor="middle" x="753" y="-399.8" font-family="Times New Roman,serif" font-size="14.00">Markenzon2006Subclasses</text>
</g>
<!-- ae45a517e1fef41abbfdbccfc12f68ed0&#45;&gt;a587b5199d77b4479ab2030ba474edf53 -->
<g id="ae45a517e1fef41abbfdbccfc12f68ed0_a587b5199d77b4479ab2030ba474edf53" class="edge">
<title>ae45a517e1fef41abbfdbccfc12f68ed0:e&#45;&gt;a587b5199d77b4479ab2030ba474edf53:w</title>
<path   d="M323,-403.5C323,-403.5 338.14,-403.5 348.78,-403.5"/>
<polygon   points="349,-407 359,-403.5 349,-400 349,-407"/>
</g>
<!-- ab5a5f1189dd24874bfc586ca85d79c8d -->
<g id="ab5a5f1189dd24874bfc586ca85d79c8d" class="node">
<title>ab5a5f1189dd24874bfc586ca85d79c8d</title>
<polygon   points="360.5,-330.5 360.5,-366.5 835.5,-366.5 835.5,-330.5 360.5,-330.5"/>
<text text-anchor="middle" x="517.5" y="-344.8" font-family="Times New Roman,serif" font-size="14.00">Monotonicity of the minimum cardinality of an iden...</text>
<polyline   points="674.5,-330.5 674.5,-366.5 "/>
<text text-anchor="middle" x="755" y="-344.8" font-family="Times New Roman,serif" font-size="14.00">Moncel2006Monotonicity</text>
</g>
<!-- a83f19fc2f66f43acab71b6e7660d09a1&#45;&gt;ab5a5f1189dd24874bfc586ca85d79c8d -->
<g id="a83f19fc2f66f43acab71b6e7660d09a1_ab5a5f1189dd24874bfc586ca85d79c8d" class="edge">
<title>a83f19fc2f66f43acab71b6e7660d09a1:e&#45;&gt;ab5a5f1189dd24874bfc586ca85d79c8d:w</title>
<path   d="M323,-211.5C323,-211.5 348.16,-307.23 356.41,-338.65"/>
<polygon   points="353.07,-339.72 359,-348.5 359.84,-337.94 353.07,-339.72"/>
</g>
<!-- a73bb3172ce3b40fcb60984e0b18233d0 -->
<g id="a73bb3172ce3b40fcb60984e0b18233d0" class="node">
<title>a73bb3172ce3b40fcb60984e0b18233d0</title>
<polygon   points="376,-275.5 376,-311.5 820,-311.5 820,-275.5 376,-275.5"/>
<text text-anchor="middle" x="541.5" y="-289.8" font-family="Times New Roman,serif" font-size="14.00">The game chromatic index of forests of maximum deg...</text>
<polyline   points="707,-275.5 707,-311.5 "/>
<text text-anchor="middle" x="763.5" y="-289.8" font-family="Times New Roman,serif" font-size="14.00">Andres2006game</text>
</g>
<!-- a83f19fc2f66f43acab71b6e7660d09a1&#45;&gt;a73bb3172ce3b40fcb60984e0b18233d0 -->
<g id="a83f19fc2f66f43acab71b6e7660d09a1_a73bb3172ce3b40fcb60984e0b18233d0" class="edge">
<title>a83f19fc2f66f43acab71b6e7660d09a1:e&#45;&gt;a73bb3172ce3b40fcb60984e0b18233d0:w</title>
<path   d="M323,-211.5C323,-211.5 356.35,-264.08 369.63,-285.03"/>
<polygon   points="366.69,-286.93 375,-293.5 372.6,-283.18 366.69,-286.93"/>
</g>
<!-- a9e41916230274a5fb2bdd2abaca86a75 -->
<g id="a9e41916230274a5fb2bdd2abaca86a75" class="node">
<title>a9e41916230274a5fb2bdd2abaca86a75</title>
<polygon   points="466.5,-220.5 466.5,-256.5 729.5,-256.5 729.5,-220.5 466.5,-220.5"/>
<text text-anchor="middle" x="531" y="-234.8" font-family="Times New Roman,serif" font-size="14.00">Clutter nonidealness</text>
<polyline   points="595.5,-220.5 595.5,-256.5 "/>
<text text-anchor="middle" x="662.5" y="-234.8" font-family="Times New Roman,serif" font-size="14.00">Argiroffo2006Clutter</text>
</g>
<!-- a83f19fc2f66f43acab71b6e7660d09a1&#45;&gt;a9e41916230274a5fb2bdd2abaca86a75 -->
<g id="a83f19fc2f66f43acab71b6e7660d09a1_a9e41916230274a5fb2bdd2abaca86a75" class="edge">
<title>a83f19fc2f66f43acab71b6e7660d09a1:e&#45;&gt;a9e41916230274a5fb2bdd2abaca86a75:w</title>
<path   d="M323,-211.5C323,-211.5 422.23,-230.37 454.79,-236.56"/>
<polygon   points="454.52,-240.07 465,-238.5 455.83,-233.19 454.52,-240.07"/>
</g>
<!-- a3114cdd71d71449183322a2aeadabac9 -->
<g id="a3114cdd71d71449183322a2aeadabac9" class="node">
<title>a3114cdd71d71449183322a2aeadabac9</title>
<polygon   points="369.5,-165.5 369.5,-201.5 826.5,-201.5 826.5,-165.5 369.5,-165.5"/>
<text text-anchor="middle" x="521" y="-179.8" font-family="Times New Roman,serif" font-size="14.00">Complexity results on restricted instances of a pa...</text>
<polyline   points="672.5,-165.5 672.5,-201.5 "/>
<text text-anchor="middle" x="749.5" y="-179.8" font-family="Times New Roman,serif" font-size="14.00">Bonsma2006Complexity</text>
</g>
<!-- a83f19fc2f66f43acab71b6e7660d09a1&#45;&gt;a3114cdd71d71449183322a2aeadabac9 -->
<g id="a83f19fc2f66f43acab71b6e7660d09a1_a3114cdd71d71449183322a2aeadabac9" class="edge">
<title>a83f19fc2f66f43acab71b6e7660d09a1:e&#45;&gt;a3114cdd71d71449183322a2aeadabac9:w</title>
<path   d="M323,-211.5C323,-211.5 346.25,-197.04 359.32,-188.9"/>
<polygon   points="361.36,-191.75 368,-183.5 357.66,-185.81 361.36,-191.75"/>
</g>
<!-- aaac380fd7bf54f27a1676c3acb429d30 -->
<g id="aaac380fd7bf54f27a1676c3acb429d30" class="node">
<title>aaac380fd7bf54f27a1676c3acb429d30</title>
<polygon   points="359,-110.5 359,-146.5 837,-146.5 837,-110.5 359,-110.5"/>
<text text-anchor="middle" x="523.5" y="-124.8" font-family="Times New Roman,serif" font-size="14.00">Bounded&#45;hops power assignment in ad hoc wireless n...</text>
<polyline   points="688,-110.5 688,-146.5 "/>
<text text-anchor="middle" x="762.5" y="-124.8" font-family="Times New Roman,serif" font-size="14.00">Calinescu2006Bounded</text>
</g>
<!-- a83f19fc2f66f43acab71b6e7660d09a1&#45;&gt;aaac380fd7bf54f27a1676c3acb429d30 -->
<g id="a83f19fc2f66f43acab71b6e7660d09a1_aaac380fd7bf54f27a1676c3acb429d30" class="edge">
<title>a83f19fc2f66f43acab71b6e7660d09a1:e&#45;&gt;aaac380fd7bf54f27a1676c3acb429d30:w</title>
<path   d="M323,-211.5C323,-211.5 345.64,-159.31 355.01,-137.7"/>
<polygon   points="358.23,-139.07 359,-128.5 351.81,-136.28 358.23,-139.07"/>
</g>
<!-- a087eedffd43c490b9cb98ee8fd4a17f6 -->
<g id="a087eedffd43c490b9cb98ee8fd4a17f6" class="node">
<title>a087eedffd43c490b9cb98ee8fd4a17f6</title>
<polygon   points="380,-55.5 380,-91.5 816,-91.5 816,-55.5 380,-55.5"/>
<text text-anchor="middle" x="525" y="-69.8" font-family="Times New Roman,serif" font-size="14.00">Hamiltonian path saturated graphs with small size</text>
<polyline   points="670,-55.5 670,-91.5 "/>
<text text-anchor="middle" x="743" y="-69.8" font-family="Times New Roman,serif" font-size="14.00">Dudek2006Hamiltonian</text>
</g>
<!-- a83f19fc2f66f43acab71b6e7660d09a1&#45;&gt;a087eedffd43c490b9cb98ee8fd4a17f6 -->
<g id="a83f19fc2f66f43acab71b6e7660d09a1_a087eedffd43c490b9cb98ee8fd4a17f6" class="edge">
<title>a83f19fc2f66f43acab71b6e7660d09a1:e&#45;&gt;a087eedffd43c490b9cb98ee8fd4a17f6:w</title>
<path   d="M323,-211.5C323,-211.5 359,-101.5 359,-101.5 359,-101.5 367.21,-90.01 373.11,-81.75"/>
<polygon   points="376.04,-83.67 379,-73.5 370.34,-79.6 376.04,-83.67"/>
</g>
<!-- a1b947257b67f4d09b70b283fbb7f9d1e -->
<g id="a1b947257b67f4d09b70b283fbb7f9d1e" class="node">
<title>a1b947257b67f4d09b70b283fbb7f9d1e</title>
<polygon   points="368,-0.5 368,-36.5 828,-36.5 828,-0.5 368,-0.5"/>
<text text-anchor="middle" x="526" y="-14.8" font-family="Times New Roman,serif" font-size="14.00">An annotated bibliography of combinatorial optimiz...</text>
<polyline   points="684,-0.5 684,-36.5 "/>
<text text-anchor="middle" x="756" y="-14.8" font-family="Times New Roman,serif" font-size="14.00">Bruglieri2006annotated</text>
</g>
<!-- a83f19fc2f66f43acab71b6e7660d09a1&#45;&gt;a1b947257b67f4d09b70b283fbb7f9d1e -->
<g id="a83f19fc2f66f43acab71b6e7660d09a1_a1b947257b67f4d09b70b283fbb7f9d1e" class="edge">
<title>a83f19fc2f66f43acab71b6e7660d09a1:e&#45;&gt;a1b947257b67f4d09b70b283fbb7f9d1e:w</title>
<path   d="M323,-211.5C323,-211.5 359,-46.5 359,-46.5 359,-46.5 361.9,-36.37 364.2,-28.29"/>
<polygon   points="367.62,-29.08 367,-18.5 360.89,-27.15 367.62,-29.08"/>
</g>
</g>
</svg>
