<?xml version="1.0" encoding="UTF-8" standalone="no"?>
<!DOCTYPE svg PUBLIC "-//W3C//DTD SVG 1.1//EN"
 "http://www.w3.org/Graphics/SVG/1.1/DTD/svg11.dtd">
<!-- Generated by graphviz version 2.46.1 (20210213.1702)
 -->
<!-- Title: G Pages: 1 -->
<svg width="518pt" height="530pt"
 viewBox="0.00 0.00 518.00 530.00" xmlns="http://www.w3.org/2000/svg" xmlns:xlink="http://www.w3.org/1999/xlink">
<g id="graph0" class="graph" transform="scale(1 1) rotate(0) translate(4 526)">
<title>G</title>
<!-- a245c81e7de2f45229518d846b8aa307f -->
<g id="a245c81e7de2f45229518d846b8aa307f" class="node">
<title>a245c81e7de2f45229518d846b8aa307f</title>
<ellipse   cx="18" cy="-260" rx="18" ry="18"/>
</g>
<!-- a377e826e43a14e3aaf81f673fb27e960 -->
<g id="a377e826e43a14e3aaf81f673fb27e960" class="node">
<title>a377e826e43a14e3aaf81f673fb27e960</title>
<path   d="M131,-307C131,-307 84,-307 84,-307 78,-307 72,-301 72,-295 72,-295 72,-281 72,-281 72,-275 78,-269 84,-269 84,-269 131,-269 131,-269 137,-269 143,-275 143,-281 143,-281 143,-295 143,-295 143,-301 137,-307 131,-307"/>
<text text-anchor="middle" x="107.5" y="-291.8" font-family="Times New Roman,serif" font-size="14.00">10 papers</text>
<text text-anchor="middle" x="107.5" y="-276.8" font-family="Times New Roman,serif" font-size="14.00">test</text>
</g>
<!-- a245c81e7de2f45229518d846b8aa307f&#45;&gt;a377e826e43a14e3aaf81f673fb27e960 -->
<g id="ae1fc04d7af194acab9b1ebc8922264e6" class="edge">
<title>a245c81e7de2f45229518d846b8aa307f:e&#45;&gt;a377e826e43a14e3aaf81f673fb27e960:w</title>
<path   d="M36,-260C36,-260 53.4,-273.54 64.01,-281.79"/>
<polygon   points="61.96,-284.62 72,-288 66.26,-279.1 61.96,-284.62"/>
</g>
<!-- ae45a517e1fef41abbfdbccfc12f68ed0 -->
<g id="ae45a517e1fef41abbfdbccfc12f68ed0" class="node">
<title>ae45a517e1fef41abbfdbccfc12f68ed0</title>
<path   d="M128,-469C128,-469 87,-469 87,-469 81,-469 75,-463 75,-457 75,-457 75,-443 75,-443 75,-437 81,-431 87,-431 87,-431 128,-431 128,-431 134,-431 140,-437 140,-443 140,-443 140,-457 140,-457 140,-463 134,-469 128,-469"/>
<text text-anchor="middle" x="107.5" y="-453.8" font-family="Times New Roman,serif" font-size="14.00">2 papers</text>
<text text-anchor="middle" x="107.5" y="-438.8" font-family="Times New Roman,serif" font-size="14.00">test2</text>
</g>
<!-- a245c81e7de2f45229518d846b8aa307f&#45;&gt;ae45a517e1fef41abbfdbccfc12f68ed0 -->
<g id="a58deeb9e96d34f109a3bc62fcfc65867" class="edge">
<title>a245c81e7de2f45229518d846b8aa307f:e&#45;&gt;ae45a517e1fef41abbfdbccfc12f68ed0:w</title>
<path   d="M36,-260C36,-260 63.82,-400.96 71.54,-440.05"/>
<polygon   points="68.13,-440.87 73.5,-450 75,-439.51 68.13,-440.87"/>
</g>
<!-- a437bbfbfb80141208ac49b2ab6cb50db -->
<g id="a437bbfbfb80141208ac49b2ab6cb50db" class="node">
<title>a437bbfbfb80141208ac49b2ab6cb50db</title>
<path   d="M128,-251C128,-251 87,-251 87,-251 81,-251 75,-245 75,-239 75,-239 75,-225 75,-225 75,-219 81,-213 87,-213 87,-213 128,-213 128,-213 134,-213 140,-219 140,-225 140,-225 140,-239 140,-239 140,-245 134,-251 128,-251"/>
<text text-anchor="middle" x="107.5" y="-235.8" font-family="Times New Roman,serif" font-size="14.00">7 papers</text>
<text text-anchor="middle" x="107.5" y="-220.8" font-family="Times New Roman,serif" font-size="14.00">test3</text>
</g>
<!-- a245c81e7de2f45229518d846b8aa307f&#45;&gt;a437bbfbfb80141208ac49b2ab6cb50db -->
<g id="a34700dcc6b684493981815e3a4c87543" class="edge">
<title>a245c81e7de2f45229518d846b8aa307f:e&#45;&gt;a437bbfbfb80141208ac49b2ab6cb50db:w</title>
<path   d="M36,-260C36,-260 54.13,-246.46 65.18,-238.21"/>
<polygon   points="67.58,-240.79 73.5,-232 63.39,-235.18 67.58,-240.79"/>
</g>
<!-- a9a060391a47045dca3020f51e52ede04 -->
<g id="a9a060391a47045dca3020f51e52ede04" class="node">
<title>a9a060391a47045dca3020f51e52ede04</title>
<path   d="M128,-116C128,-116 87,-116 87,-116 81,-116 75,-110 75,-104 75,-104 75,-90 75,-90 75,-84 81,-78 87,-78 87,-78 128,-78 128,-78 134,-78 140,-84 140,-90 140,-90 140,-104 140,-104 140,-110 134,-116 128,-116"/>
<text text-anchor="middle" x="107.5" y="-100.8" font-family="Times New Roman,serif" font-size="14.00">1 papers</text>
<text text-anchor="middle" x="107.5" y="-85.8" font-family="Times New Roman,serif" font-size="14.00">test4</text>
</g>
<!-- a245c81e7de2f45229518d846b8aa307f&#45;&gt;a9a060391a47045dca3020f51e52ede04 -->
<g id="ac8acfffd0c374f3c89df4edb29f052f2" class="edge">
<title>a245c81e7de2f45229518d846b8aa307f:e&#45;&gt;a9a060391a47045dca3020f51e52ede04:w</title>
<path   d="M36,-260C36,-260 62.94,-142.88 71.15,-107.2"/>
<polygon   points="74.67,-107.53 73.5,-97 67.85,-105.96 74.67,-107.53"/>
</g>
<!-- a522b40ada52d43739619f6e1bde0b389 -->
<g id="a522b40ada52d43739619f6e1bde0b389" class="node">
<title>a522b40ada52d43739619f6e1bde0b389</title>
<path   d="M471.5,-522C471.5,-522 217.5,-522 217.5,-522 211.5,-522 205.5,-516 205.5,-510 205.5,-510 205.5,-498 205.5,-498 205.5,-492 211.5,-486 217.5,-486 217.5,-486 471.5,-486 471.5,-486 477.5,-486 483.5,-492 483.5,-498 483.5,-498 483.5,-510 483.5,-510 483.5,-516 477.5,-522 471.5,-522"/>
<text text-anchor="middle" x="344.5" y="-500.3" font-family="Times New Roman,serif" font-size="14.00">First vs. best improvement: An empirical study</text>
</g>
<!-- a83f19fc2f66f43acab71b6e7660d09a1 -->
<g id="a83f19fc2f66f43acab71b6e7660d09a1" class="node">
<title>a83f19fc2f66f43acab71b6e7660d09a1</title>
<path   d="M487.5,-468C487.5,-468 201.5,-468 201.5,-468 195.5,-468 189.5,-462 189.5,-456 189.5,-456 189.5,-444 189.5,-444 189.5,-438 195.5,-432 201.5,-432 201.5,-432 487.5,-432 487.5,-432 493.5,-432 499.5,-438 499.5,-444 499.5,-444 499.5,-456 499.5,-456 499.5,-462 493.5,-468 487.5,-468"/>
<text text-anchor="middle" x="344.5" y="-446.3" font-family="Times New Roman,serif" font-size="14.00">Subclasses of k&#45;trees: Characterization and recogn...</text>
</g>
<!-- a9ed631762ce74dcca0c3bb60f00976b1 -->
<g id="a9ed631762ce74dcca0c3bb60f00976b1" class="node">
<title>a9ed631762ce74dcca0c3bb60f00976b1</title>
<path   d="M489.5,-360C489.5,-360 199.5,-360 199.5,-360 193.5,-360 187.5,-354 187.5,-348 187.5,-348 187.5,-336 187.5,-336 187.5,-330 193.5,-324 199.5,-324 199.5,-324 489.5,-324 489.5,-324 495.5,-324 501.5,-330 501.5,-336 501.5,-336 501.5,-348 501.5,-348 501.5,-354 495.5,-360 489.5,-360"/>
<text text-anchor="middle" x="344.5" y="-338.3" font-family="Times New Roman,serif" font-size="14.00">Monotonicity of the minimum cardinality of an iden...</text>
</g>
<!-- a5da8dd6a05834c7a8010029bcfcbe856 -->
<g id="a5da8dd6a05834c7a8010029bcfcbe856" class="node">
<title>a5da8dd6a05834c7a8010029bcfcbe856</title>
<path   d="M498,-306C498,-306 191,-306 191,-306 185,-306 179,-300 179,-294 179,-294 179,-282 179,-282 179,-276 185,-270 191,-270 191,-270 498,-270 498,-270 504,-270 510,-276 510,-282 510,-282 510,-294 510,-294 510,-300 504,-306 498,-306"/>
<text text-anchor="middle" x="344.5" y="-284.3" font-family="Times New Roman,serif" font-size="14.00">The game chromatic index of forests of maximum deg...</text>
</g>
<!-- ace11659c4b134252bd68167be9600ece -->
<g id="ace11659c4b134252bd68167be9600ece" class="node">
<title>ace11659c4b134252bd68167be9600ece</title>
<path   d="M397,-252C397,-252 292,-252 292,-252 286,-252 280,-246 280,-240 280,-240 280,-228 280,-228 280,-222 286,-216 292,-216 292,-216 397,-216 397,-216 403,-216 409,-222 409,-228 409,-228 409,-240 409,-240 409,-246 403,-252 397,-252"/>
<text text-anchor="middle" x="344.5" y="-230.3" font-family="Times New Roman,serif" font-size="14.00">Clutter nonidealness</text>
</g>
<!-- a40313d57e9bf443d8996eff19792ac44 -->
<g id="a40313d57e9bf443d8996eff19792ac44" class="node">
<title>a40313d57e9bf443d8996eff19792ac44</title>
<path   d="M484,-198C484,-198 205,-198 205,-198 199,-198 193,-192 193,-186 193,-186 193,-174 193,-174 193,-168 199,-162 205,-162 205,-162 484,-162 484,-162 490,-162 496,-168 496,-174 496,-174 496,-186 496,-186 496,-192 490,-198 484,-198"/>
<text text-anchor="middle" x="344.5" y="-176.3" font-family="Times New Roman,serif" font-size="14.00">Complexity results on restricted instances of a pa...</text>
</g>
<!-- a63aff33df4d3457595711539cd765875 -->
<g id="a63aff33df4d3457595711539cd765875" class="node">
<title>a63aff33df4d3457595711539cd765875</title>
<path   d="M497,-144C497,-144 192,-144 192,-144 186,-144 180,-138 180,-132 180,-132 180,-120 180,-120 180,-114 186,-108 192,-108 192,-108 497,-108 497,-108 503,-108 509,-114 509,-120 509,-120 509,-132 509,-132 509,-138 503,-144 497,-144"/>
<text text-anchor="middle" x="344.5" y="-122.3" font-family="Times New Roman,serif" font-size="14.00">Bounded&#45;hops power assignment in ad hoc wireless n...</text>
</g>
<!-- af588fec7a19d419bb45de6f47b9274d8 -->
<g id="af588fec7a19d419bb45de6f47b9274d8" class="node">
<title>af588fec7a19d419bb45de6f47b9274d8</title>
<path   d="M477.5,-90C477.5,-90 211.5,-90 211.5,-90 205.5,-90 199.5,-84 199.5,-78 199.5,-78 199.5,-66 199.5,-66 199.5,-60 205.5,-54 211.5,-54 211.5,-54 477.5,-54 477.5,-54 483.5,-54 489.5,-60 489.5,-66 489.5,-66 489.5,-78 489.5,-78 489.5,-84 483.5,-90 477.5,-90"/>
<text text-anchor="middle" x="344.5" y="-68.3" font-family="Times New Roman,serif" font-size="14.00">Hamiltonian path saturated graphs with small size</text>
</g>
<!-- a0727b23f98bd485d81edd0f383eace6d -->
<g id="a0727b23f98bd485d81edd0f383eace6d" class="node">
<title>a0727b23f98bd485d81edd0f383eace6d</title>
<path   d="M490.5,-414C490.5,-414 198.5,-414 198.5,-414 192.5,-414 186.5,-408 186.5,-402 186.5,-402 186.5,-390 186.5,-390 186.5,-384 192.5,-378 198.5,-378 198.5,-378 490.5,-378 490.5,-378 496.5,-378 502.5,-384 502.5,-390 502.5,-390 502.5,-402 502.5,-402 502.5,-408 496.5,-414 490.5,-414"/>
<text text-anchor="middle" x="344.5" y="-392.3" font-family="Times New Roman,serif" font-size="14.00">An annotated bibliography of combinatorial optimiz...</text>
</g>
<!-- a3f6442b6db12407c907bf034ac05d2fa -->
<g id="a3f6442b6db12407c907bf034ac05d2fa" class="node">
<title>a3f6442b6db12407c907bf034ac05d2fa</title>
<path   d="M414.5,-36C414.5,-36 274.5,-36 274.5,-36 268.5,-36 262.5,-30 262.5,-24 262.5,-24 262.5,-12 262.5,-12 262.5,-6 268.5,0 274.5,0 274.5,0 414.5,0 414.5,0 420.5,0 426.5,-6 426.5,-12 426.5,-12 426.5,-24 426.5,-24 426.5,-30 420.5,-36 414.5,-36"/>
<text text-anchor="middle" x="344.5" y="-14.3" font-family="Times New Roman,serif" font-size="14.00">Path&#45;fan Ramsey numbers</text>
</g>
<!-- a377e826e43a14e3aaf81f673fb27e960&#45;&gt;a522b40ada52d43739619f6e1bde0b389 -->
<g id="a8d3823501a454c818f791e7753322edf" class="edge">
<title>a377e826e43a14e3aaf81f673fb27e960:e&#45;&gt;a522b40ada52d43739619f6e1bde0b389:w</title>
<path   d="M143,-288C143,-288 179,-477 179,-477 179,-477 189.98,-488.63 197.53,-496.62"/>
<polygon   points="195.09,-499.13 204.5,-504 200.18,-494.33 195.09,-499.13"/>
</g>
<!-- a377e826e43a14e3aaf81f673fb27e960&#45;&gt;a83f19fc2f66f43acab71b6e7660d09a1 -->
<g id="acb1bd912710944fe9c3492425bf05d83" class="edge">
<title>a377e826e43a14e3aaf81f673fb27e960:e&#45;&gt;a83f19fc2f66f43acab71b6e7660d09a1:w</title>
<path   d="M143,-288C143,-288 179,-423 179,-423 179,-423 182.44,-432.77 185.18,-440.56"/>
<polygon   points="181.88,-441.73 188.5,-450 188.48,-439.41 181.88,-441.73"/>
</g>
<!-- a377e826e43a14e3aaf81f673fb27e960&#45;&gt;a9ed631762ce74dcca0c3bb60f00976b1 -->
<g id="a595d137d1b2d41af9ec45b18604c3902" class="edge">
<title>a377e826e43a14e3aaf81f673fb27e960:e&#45;&gt;a9ed631762ce74dcca0c3bb60f00976b1:w</title>
<path   d="M143,-288C143,-288 167.98,-319.01 180.08,-334.03"/>
<polygon   points="177.5,-336.41 186.5,-342 182.95,-332.02 177.5,-336.41"/>
</g>
<!-- a377e826e43a14e3aaf81f673fb27e960&#45;&gt;a5da8dd6a05834c7a8010029bcfcbe856 -->
<g id="ac7be3d2adfa34c5cae4ab7e4e00745cd" class="edge">
<title>a377e826e43a14e3aaf81f673fb27e960:e&#45;&gt;a5da8dd6a05834c7a8010029bcfcbe856:w</title>
<path   d="M143,-288C143,-288 158.14,-288 168.78,-288"/>
<polygon   points="169,-291.5 179,-288 169,-284.5 169,-291.5"/>
</g>
<!-- a377e826e43a14e3aaf81f673fb27e960&#45;&gt;ace11659c4b134252bd68167be9600ece -->
<g id="ad43a1ad1421842e5bcbd1bb4e37c8f4d" class="edge">
<title>a377e826e43a14e3aaf81f673fb27e960:e&#45;&gt;ace11659c4b134252bd68167be9600ece:w</title>
<path   d="M143,-288C143,-288 179,-261 179,-261 179,-261 243.43,-243.52 268.6,-236.69"/>
<polygon   points="269.77,-240 278.5,-234 267.93,-233.24 269.77,-240"/>
</g>
<!-- a377e826e43a14e3aaf81f673fb27e960&#45;&gt;a40313d57e9bf443d8996eff19792ac44 -->
<g id="a339a8a63abfc4806a160e81db26488d1" class="edge">
<title>a377e826e43a14e3aaf81f673fb27e960:e&#45;&gt;a40313d57e9bf443d8996eff19792ac44:w</title>
<path   d="M143,-288C143,-288 179,-207 179,-207 179,-207 183.64,-196.97 187.27,-189.14"/>
<polygon   points="190.47,-190.55 191.5,-180 184.12,-187.6 190.47,-190.55"/>
</g>
<!-- a377e826e43a14e3aaf81f673fb27e960&#45;&gt;a63aff33df4d3457595711539cd765875 -->
<g id="ab6d753ba50bc4e34b4f77207a2b68b65" class="edge">
<title>a377e826e43a14e3aaf81f673fb27e960:e&#45;&gt;a63aff33df4d3457595711539cd765875:w</title>
<path   d="M143,-288C143,-288 168.87,-171.6 176.75,-136.13"/>
<polygon   points="180.25,-136.52 179,-126 173.41,-135 180.25,-136.52"/>
</g>
<!-- a377e826e43a14e3aaf81f673fb27e960&#45;&gt;af588fec7a19d419bb45de6f47b9274d8 -->
<g id="a02e1d17456ff457ab82f36abbccdcb22" class="edge">
<title>a377e826e43a14e3aaf81f673fb27e960:e&#45;&gt;af588fec7a19d419bb45de6f47b9274d8:w</title>
<path   d="M143,-288C143,-288 179,-99 179,-99 179,-99 186.81,-88.19 192.54,-80.25"/>
<polygon   points="195.48,-82.16 198.5,-72 189.81,-78.06 195.48,-82.16"/>
</g>
<!-- a377e826e43a14e3aaf81f673fb27e960&#45;&gt;a0727b23f98bd485d81edd0f383eace6d -->
<g id="aa4e4f75390a64b788c3467383ba2fd2f" class="edge">
<title>a377e826e43a14e3aaf81f673fb27e960:e&#45;&gt;a0727b23f98bd485d81edd0f383eace6d:w</title>
<path   d="M143,-288C143,-288 171.33,-359.98 181.73,-386.42"/>
<polygon   points="178.58,-387.98 185.5,-396 185.09,-385.41 178.58,-387.98"/>
</g>
<!-- a377e826e43a14e3aaf81f673fb27e960&#45;&gt;a3f6442b6db12407c907bf034ac05d2fa -->
<g id="a4bb261262add452d97777ca420067fe0" class="edge">
<title>a377e826e43a14e3aaf81f673fb27e960:e&#45;&gt;a3f6442b6db12407c907bf034ac05d2fa:w</title>
<path   d="M143,-288C143,-288 179,-45 179,-45 179,-45 229.86,-28.36 251.71,-21.2"/>
<polygon   points="253.08,-24.44 261.5,-18 250.91,-17.78 253.08,-24.44"/>
</g>
<!-- ae45a517e1fef41abbfdbccfc12f68ed0&#45;&gt;a522b40ada52d43739619f6e1bde0b389 -->
<g id="a64e50622ad514758a8c26c2702e868fc" class="edge">
<title>ae45a517e1fef41abbfdbccfc12f68ed0:e&#45;&gt;a522b40ada52d43739619f6e1bde0b389:w</title>
<path   d="M141.5,-450C141.5,-450 179.95,-482.96 196.77,-497.38"/>
<polygon   points="194.63,-500.15 204.5,-504 199.19,-494.83 194.63,-500.15"/>
</g>
<!-- ae45a517e1fef41abbfdbccfc12f68ed0&#45;&gt;a83f19fc2f66f43acab71b6e7660d09a1 -->
<g id="a9529a9a28ef14c44930497d470feb9e8" class="edge">
<title>ae45a517e1fef41abbfdbccfc12f68ed0:e&#45;&gt;a83f19fc2f66f43acab71b6e7660d09a1:w</title>
<path   d="M141.5,-450C141.5,-450 164.22,-450 178.07,-450"/>
<polygon   points="178.5,-453.5 188.5,-450 178.5,-446.5 178.5,-453.5"/>
</g>
<!-- a437bbfbfb80141208ac49b2ab6cb50db&#45;&gt;a9ed631762ce74dcca0c3bb60f00976b1 -->
<g id="af95680f502f845d99f870b97a6e34186" class="edge">
<title>a437bbfbfb80141208ac49b2ab6cb50db:e&#45;&gt;a9ed631762ce74dcca0c3bb60f00976b1:w</title>
<path   d="M141.5,-232C141.5,-232 171.78,-306.02 182.66,-332.62"/>
<polygon   points="179.47,-334.07 186.5,-342 185.95,-331.42 179.47,-334.07"/>
</g>
<!-- a437bbfbfb80141208ac49b2ab6cb50db&#45;&gt;a5da8dd6a05834c7a8010029bcfcbe856 -->
<g id="ae7d48faf9e6e48248c344c7557e21e48" class="edge">
<title>a437bbfbfb80141208ac49b2ab6cb50db:e&#45;&gt;a5da8dd6a05834c7a8010029bcfcbe856:w</title>
<path   d="M141.5,-232C141.5,-232 162.59,-263.5 173.14,-279.25"/>
<polygon   points="170.53,-281.64 179,-288 176.34,-277.74 170.53,-281.64"/>
</g>
<!-- a437bbfbfb80141208ac49b2ab6cb50db&#45;&gt;ace11659c4b134252bd68167be9600ece -->
<g id="a99c9b8f0851a46f399bf533eb2bcf846" class="edge">
<title>a437bbfbfb80141208ac49b2ab6cb50db:e&#45;&gt;ace11659c4b134252bd68167be9600ece:w</title>
<path   d="M141.5,-232C141.5,-232 236.34,-233.38 268.2,-233.85"/>
<polygon   points="268.45,-237.35 278.5,-234 268.55,-230.35 268.45,-237.35"/>
</g>
<!-- a437bbfbfb80141208ac49b2ab6cb50db&#45;&gt;a40313d57e9bf443d8996eff19792ac44 -->
<g id="ab0bfac77dc6d4b6c8abfc5657a730280" class="edge">
<title>a437bbfbfb80141208ac49b2ab6cb50db:e&#45;&gt;a40313d57e9bf443d8996eff19792ac44:w</title>
<path   d="M141.5,-232C141.5,-232 170.81,-201.52 184.55,-187.23"/>
<polygon   points="187.09,-189.63 191.5,-180 182.05,-184.78 187.09,-189.63"/>
</g>
<!-- a437bbfbfb80141208ac49b2ab6cb50db&#45;&gt;a63aff33df4d3457595711539cd765875 -->
<g id="a91eb10a7345846a8990d8bba4fbc803f" class="edge">
<title>a437bbfbfb80141208ac49b2ab6cb50db:e&#45;&gt;a63aff33df4d3457595711539cd765875:w</title>
<path   d="M141.5,-232C141.5,-232 166.26,-162.02 175.54,-135.78"/>
<polygon   points="178.96,-136.59 179,-126 172.37,-134.26 178.96,-136.59"/>
</g>
<!-- a437bbfbfb80141208ac49b2ab6cb50db&#45;&gt;af588fec7a19d419bb45de6f47b9274d8 -->
<g id="a36ee12efa1c141c0b787d53cc6851dd2" class="edge">
<title>a437bbfbfb80141208ac49b2ab6cb50db:e&#45;&gt;af588fec7a19d419bb45de6f47b9274d8:w</title>
<path   d="M141.5,-232C141.5,-232 179,-99 179,-99 179,-99 186.81,-88.19 192.54,-80.25"/>
<polygon   points="195.48,-82.16 198.5,-72 189.81,-78.06 195.48,-82.16"/>
</g>
<!-- a437bbfbfb80141208ac49b2ab6cb50db&#45;&gt;a0727b23f98bd485d81edd0f383eace6d -->
<g id="a638dc51623a5462ba1650cb1c5000ae4" class="edge">
<title>a437bbfbfb80141208ac49b2ab6cb50db:e&#45;&gt;a0727b23f98bd485d81edd0f383eace6d:w</title>
<path   d="M141.5,-232C141.5,-232 173.41,-350.93 182.88,-386.23"/>
<polygon   points="179.53,-387.25 185.5,-396 186.29,-385.43 179.53,-387.25"/>
</g>
<!-- a9a060391a47045dca3020f51e52ede04&#45;&gt;a3f6442b6db12407c907bf034ac05d2fa -->
<g id="ad126aac338e240bcb4db70a1f5fbd0e0" class="edge">
<title>a9a060391a47045dca3020f51e52ede04:e&#45;&gt;a3f6442b6db12407c907bf034ac05d2fa:w</title>
<path   d="M141.5,-97C141.5,-97 179,-45 179,-45 179,-45 229.86,-28.36 251.71,-21.2"/>
<polygon   points="253.08,-24.44 261.5,-18 250.91,-17.78 253.08,-24.44"/>
</g>
</g>
</svg>
