<?xml version="1.0" encoding="UTF-8" standalone="no"?>
<!DOCTYPE svg PUBLIC "-//W3C//DTD SVG 1.1//EN"
 "http://www.w3.org/Graphics/SVG/1.1/DTD/svg11.dtd">
<!-- Generated by graphviz version 2.46.1 (20210213.1702)
 -->
<!-- Title: G Pages: 1 -->
<svg width="656pt" height="540pt"
 viewBox="0.00 0.00 656.00 540.00" xmlns="http://www.w3.org/2000/svg" xmlns:xlink="http://www.w3.org/1999/xlink">
<g id="graph0" class="graph" transform="scale(1 1) rotate(0) translate(4 536)">
<title>G</title>
<!-- bbbbbbbbbbbbbbbbbbbbbbbbbbbbbbbbb -->
<g id="bbbbbbbbbbbbbbbbbbbbbbbbbbbbbbbbb" class="node">
<title>bbbbbbbbbbbbbbbbbbbbbbbbbbbbbbbbb</title>
<ellipse   cx="18" cy="-238.5" rx="18" ry="18"/>
</g>
<!-- t2f9ef239b368425a93c01cb9df8c9443 -->
<g id="t2f9ef239b368425a93c01cb9df8c9443" class="node">
<title>t2f9ef239b368425a93c01cb9df8c9443</title>
<polygon   points="72,-220.5 72,-256.5 126,-256.5 126,-220.5 72,-220.5"/>
<text text-anchor="middle" x="99" y="-234.8" font-family="Times New Roman,serif" font-size="14.00">test</text>
</g>
<!-- bbbbbbbbbbbbbbbbbbbbbbbbbbbbbbbbb&#45;&gt;t2f9ef239b368425a93c01cb9df8c9443 -->
<g id="bbbbbbbbbbbbbbbbbbbbbbbbbbbbbbbbb_t2f9ef239b368425a93c01cb9df8c9443" class="edge">
<title>bbbbbbbbbbbbbbbbbbbbbbbbbbbbbbbbb:e&#45;&gt;t2f9ef239b368425a93c01cb9df8c9443:w</title>
<path   d="M36,-238.5C36,-238.5 51.14,-238.5 61.78,-238.5"/>
<polygon   points="62,-242 72,-238.5 62,-235 62,-242"/>
</g>
<!-- tb31007df17b24ddca268a1fc8d60e579 -->
<g id="tb31007df17b24ddca268a1fc8d60e579" class="node">
<title>tb31007df17b24ddca268a1fc8d60e579</title>
<polygon   points="194.5,-440.5 194.5,-476.5 248.5,-476.5 248.5,-440.5 194.5,-440.5"/>
<text text-anchor="middle" x="221.5" y="-454.8" font-family="Times New Roman,serif" font-size="14.00">test2</text>
</g>
<!-- t2f9ef239b368425a93c01cb9df8c9443&#45;&gt;tb31007df17b24ddca268a1fc8d60e579 -->
<g id="t2f9ef239b368425a93c01cb9df8c9443_tb31007df17b24ddca268a1fc8d60e579" class="edge">
<title>t2f9ef239b368425a93c01cb9df8c9443:e&#45;&gt;tb31007df17b24ddca268a1fc8d60e579:w</title>
<path   d="M126,-238.5C126,-238.5 177.45,-406.19 190.51,-448.76"/>
<polygon   points="187.22,-449.97 193.5,-458.5 193.91,-447.91 187.22,-449.97"/>
</g>
<!-- t620a6c3e09934ea595ae471fc0a438a9 -->
<g id="t620a6c3e09934ea595ae471fc0a438a9" class="node">
<title>t620a6c3e09934ea595ae471fc0a438a9</title>
<polygon   points="194.5,-220.5 194.5,-256.5 248.5,-256.5 248.5,-220.5 194.5,-220.5"/>
<text text-anchor="middle" x="221.5" y="-234.8" font-family="Times New Roman,serif" font-size="14.00">test3</text>
</g>
<!-- t2f9ef239b368425a93c01cb9df8c9443&#45;&gt;t620a6c3e09934ea595ae471fc0a438a9 -->
<g id="t2f9ef239b368425a93c01cb9df8c9443_t620a6c3e09934ea595ae471fc0a438a9" class="edge">
<title>t2f9ef239b368425a93c01cb9df8c9443:e&#45;&gt;t620a6c3e09934ea595ae471fc0a438a9:w</title>
<path   d="M126,-238.5C126,-238.5 164.37,-238.5 183.25,-238.5"/>
<polygon   points="183.5,-242 193.5,-238.5 183.5,-235 183.5,-242"/>
</g>
<!-- a522b40ada52d43739619f6e1bde0b389 -->
<g id="a522b40ada52d43739619f6e1bde0b389" class="node">
<title>a522b40ada52d43739619f6e1bde0b389</title>
<polygon   points="162,-83.5 162,-119.5 281,-119.5 281,-83.5 162,-83.5"/>
<text text-anchor="middle" x="194.5" y="-97.8" font-family="Times New Roman,serif" font-size="14.00">1 papers</text>
<polyline   points="227,-83.5 227,-119.5 "/>
<text text-anchor="middle" x="254" y="-97.8" font-family="Times New Roman,serif" font-size="14.00">Others</text>
</g>
<!-- t2f9ef239b368425a93c01cb9df8c9443&#45;&gt;a522b40ada52d43739619f6e1bde0b389 -->
<g id="t2f9ef239b368425a93c01cb9df8c9443_a522b40ada52d43739619f6e1bde0b389" class="edge">
<title>t2f9ef239b368425a93c01cb9df8c9443:e&#45;&gt;a522b40ada52d43739619f6e1bde0b389:w</title>
<path   d="M126,-238.5C126,-238.5 151.16,-142.77 159.41,-111.35"/>
<polygon   points="162.84,-112.06 162,-101.5 156.07,-110.28 162.84,-112.06"/>
</g>
<!-- a5170d0cb4ce940f58accdecaa2635090 -->
<g id="a5170d0cb4ce940f58accdecaa2635090" class="node">
<title>a5170d0cb4ce940f58accdecaa2635090</title>
<polygon   points="343.5,-495.5 343.5,-531.5 621.5,-531.5 621.5,-495.5 343.5,-495.5"/>
<text text-anchor="middle" x="482.5" y="-509.8" font-family="Times New Roman,serif" font-size="14.00">First vs. best improvement: An empirical study</text>
</g>
<!-- tb31007df17b24ddca268a1fc8d60e579&#45;&gt;a5170d0cb4ce940f58accdecaa2635090 -->
<g id="tb31007df17b24ddca268a1fc8d60e579_a5170d0cb4ce940f58accdecaa2635090" class="edge">
<title>tb31007df17b24ddca268a1fc8d60e579:e&#45;&gt;a5170d0cb4ce940f58accdecaa2635090:w</title>
<path   d="M249.5,-458.5C249.5,-458.5 310.31,-494.46 333.58,-508.23"/>
<polygon   points="332.11,-511.42 342.5,-513.5 335.67,-505.4 332.11,-511.42"/>
</g>
<!-- a84ab1b0d0655425ea3661e179bb6b490 -->
<g id="a84ab1b0d0655425ea3661e179bb6b490" class="node">
<title>a84ab1b0d0655425ea3661e179bb6b490</title>
<polygon   points="327.5,-440.5 327.5,-476.5 637.5,-476.5 637.5,-440.5 327.5,-440.5"/>
<text text-anchor="middle" x="482.5" y="-454.8" font-family="Times New Roman,serif" font-size="14.00">Subclasses of k&#45;trees: Characterization and recogn...</text>
</g>
<!-- tb31007df17b24ddca268a1fc8d60e579&#45;&gt;a84ab1b0d0655425ea3661e179bb6b490 -->
<g id="tb31007df17b24ddca268a1fc8d60e579_a84ab1b0d0655425ea3661e179bb6b490" class="edge">
<title>tb31007df17b24ddca268a1fc8d60e579:e&#45;&gt;a84ab1b0d0655425ea3661e179bb6b490:w</title>
<path   d="M249.5,-458.5C249.5,-458.5 295.56,-458.5 316.43,-458.5"/>
<polygon   points="316.5,-462 326.5,-458.5 316.5,-455 316.5,-462"/>
</g>
<!-- afb86f31e2edd4c3bbfd405b5156d6c02 -->
<g id="afb86f31e2edd4c3bbfd405b5156d6c02" class="node">
<title>afb86f31e2edd4c3bbfd405b5156d6c02</title>
<polygon   points="325.5,-385.5 325.5,-421.5 639.5,-421.5 639.5,-385.5 325.5,-385.5"/>
<text text-anchor="middle" x="482.5" y="-399.8" font-family="Times New Roman,serif" font-size="14.00">Monotonicity of the minimum cardinality of an iden...</text>
</g>
<!-- t620a6c3e09934ea595ae471fc0a438a9&#45;&gt;afb86f31e2edd4c3bbfd405b5156d6c02 -->
<g id="t620a6c3e09934ea595ae471fc0a438a9_afb86f31e2edd4c3bbfd405b5156d6c02" class="edge">
<title>t620a6c3e09934ea595ae471fc0a438a9:e&#45;&gt;afb86f31e2edd4c3bbfd405b5156d6c02:w</title>
<path   d="M249.5,-238.5C249.5,-238.5 304.39,-359.25 320.25,-394.16"/>
<polygon   points="317.18,-395.84 324.5,-403.5 323.55,-392.95 317.18,-395.84"/>
</g>
<!-- ac9379115df794edebddcbff36c274629 -->
<g id="ac9379115df794edebddcbff36c274629" class="node">
<title>ac9379115df794edebddcbff36c274629</title>
<polygon   points="317,-330.5 317,-366.5 648,-366.5 648,-330.5 317,-330.5"/>
<text text-anchor="middle" x="482.5" y="-344.8" font-family="Times New Roman,serif" font-size="14.00">The game chromatic index of forests of maximum deg...</text>
</g>
<!-- t620a6c3e09934ea595ae471fc0a438a9&#45;&gt;ac9379115df794edebddcbff36c274629 -->
<g id="t620a6c3e09934ea595ae471fc0a438a9_ac9379115df794edebddcbff36c274629" class="edge">
<title>t620a6c3e09934ea595ae471fc0a438a9:e&#45;&gt;ac9379115df794edebddcbff36c274629:w</title>
<path   d="M249.5,-238.5C249.5,-238.5 295.79,-313.94 311.7,-339.87"/>
<polygon   points="308.79,-341.81 317,-348.5 314.75,-338.15 308.79,-341.81"/>
</g>
<!-- a9a3e6898d6a349deab5592b9aa38b269 -->
<g id="a9a3e6898d6a349deab5592b9aa38b269" class="node">
<title>a9a3e6898d6a349deab5592b9aa38b269</title>
<polygon   points="418,-275.5 418,-311.5 547,-311.5 547,-275.5 418,-275.5"/>
<text text-anchor="middle" x="482.5" y="-289.8" font-family="Times New Roman,serif" font-size="14.00">Clutter nonidealness</text>
</g>
<!-- t620a6c3e09934ea595ae471fc0a438a9&#45;&gt;a9a3e6898d6a349deab5592b9aa38b269 -->
<g id="t620a6c3e09934ea595ae471fc0a438a9_a9a3e6898d6a349deab5592b9aa38b269" class="edge">
<title>t620a6c3e09934ea595ae471fc0a438a9:e&#45;&gt;a9a3e6898d6a349deab5592b9aa38b269:w</title>
<path   d="M249.5,-238.5C249.5,-238.5 317,-266.5 317,-266.5 317,-266.5 381.43,-283.98 406.6,-290.81"/>
<polygon   points="405.93,-294.26 416.5,-293.5 407.77,-287.5 405.93,-294.26"/>
</g>
<!-- a65c2e888a5624919a760489137055a70 -->
<g id="a65c2e888a5624919a760489137055a70" class="node">
<title>a65c2e888a5624919a760489137055a70</title>
<polygon   points="331,-220.5 331,-256.5 634,-256.5 634,-220.5 331,-220.5"/>
<text text-anchor="middle" x="482.5" y="-234.8" font-family="Times New Roman,serif" font-size="14.00">Complexity results on restricted instances of a pa...</text>
</g>
<!-- t620a6c3e09934ea595ae471fc0a438a9&#45;&gt;a65c2e888a5624919a760489137055a70 -->
<g id="t620a6c3e09934ea595ae471fc0a438a9_a65c2e888a5624919a760489137055a70" class="edge">
<title>t620a6c3e09934ea595ae471fc0a438a9:e&#45;&gt;a65c2e888a5624919a760489137055a70:w</title>
<path   d="M249.5,-238.5C249.5,-238.5 297.84,-238.5 319.37,-238.5"/>
<polygon   points="319.5,-242 329.5,-238.5 319.5,-235 319.5,-242"/>
</g>
<!-- aa89f6669ec614f4e9dd756541c624b6a -->
<g id="aa89f6669ec614f4e9dd756541c624b6a" class="node">
<title>aa89f6669ec614f4e9dd756541c624b6a</title>
<polygon   points="318,-165.5 318,-201.5 647,-201.5 647,-165.5 318,-165.5"/>
<text text-anchor="middle" x="482.5" y="-179.8" font-family="Times New Roman,serif" font-size="14.00">Bounded&#45;hops power assignment in ad hoc wireless n...</text>
</g>
<!-- t620a6c3e09934ea595ae471fc0a438a9&#45;&gt;aa89f6669ec614f4e9dd756541c624b6a -->
<g id="t620a6c3e09934ea595ae471fc0a438a9_aa89f6669ec614f4e9dd756541c624b6a" class="edge">
<title>t620a6c3e09934ea595ae471fc0a438a9:e&#45;&gt;aa89f6669ec614f4e9dd756541c624b6a:w</title>
<path   d="M249.5,-238.5C249.5,-238.5 291.11,-204.59 308.99,-190.03"/>
<polygon   points="311.46,-192.53 317,-183.5 307.04,-187.1 311.46,-192.53"/>
</g>
<!-- aa095b963a4124c6c94d8843123982307 -->
<g id="aa095b963a4124c6c94d8843123982307" class="node">
<title>aa095b963a4124c6c94d8843123982307</title>
<polygon   points="337.5,-110.5 337.5,-146.5 627.5,-146.5 627.5,-110.5 337.5,-110.5"/>
<text text-anchor="middle" x="482.5" y="-124.8" font-family="Times New Roman,serif" font-size="14.00">Hamiltonian path saturated graphs with small size</text>
</g>
<!-- t620a6c3e09934ea595ae471fc0a438a9&#45;&gt;aa095b963a4124c6c94d8843123982307 -->
<g id="t620a6c3e09934ea595ae471fc0a438a9_aa095b963a4124c6c94d8843123982307" class="edge">
<title>t620a6c3e09934ea595ae471fc0a438a9:e&#45;&gt;aa095b963a4124c6c94d8843123982307:w</title>
<path   d="M249.5,-238.5C249.5,-238.5 310.29,-161.63 330.24,-136.41"/>
<polygon   points="333.04,-138.51 336.5,-128.5 327.55,-134.17 333.04,-138.51"/>
</g>
<!-- a4d79170a5e7142418e31f422ebf9671a -->
<g id="a4d79170a5e7142418e31f422ebf9671a" class="node">
<title>a4d79170a5e7142418e31f422ebf9671a</title>
<polygon   points="324.5,-55.5 324.5,-91.5 640.5,-91.5 640.5,-55.5 324.5,-55.5"/>
<text text-anchor="middle" x="482.5" y="-69.8" font-family="Times New Roman,serif" font-size="14.00">An annotated bibliography of combinatorial optimiz...</text>
</g>
<!-- t620a6c3e09934ea595ae471fc0a438a9&#45;&gt;a4d79170a5e7142418e31f422ebf9671a -->
<g id="t620a6c3e09934ea595ae471fc0a438a9_a4d79170a5e7142418e31f422ebf9671a" class="edge">
<title>t620a6c3e09934ea595ae471fc0a438a9:e&#45;&gt;a4d79170a5e7142418e31f422ebf9671a:w</title>
<path   d="M249.5,-238.5C249.5,-238.5 303.66,-117.75 319.31,-82.84"/>
<polygon   points="322.6,-84.06 323.5,-73.5 316.21,-81.19 322.6,-84.06"/>
</g>
<!-- a38c2fb74e68c4b25891f5e77b9fb8b22 -->
<g id="a38c2fb74e68c4b25891f5e77b9fb8b22" class="node">
<title>a38c2fb74e68c4b25891f5e77b9fb8b22</title>
<polygon   points="400.5,-0.5 400.5,-36.5 564.5,-36.5 564.5,-0.5 400.5,-0.5"/>
<text text-anchor="middle" x="482.5" y="-14.8" font-family="Times New Roman,serif" font-size="14.00">Path&#45;fan Ramsey numbers</text>
</g>
<!-- a522b40ada52d43739619f6e1bde0b389&#45;&gt;a38c2fb74e68c4b25891f5e77b9fb8b22 -->
<g id="a522b40ada52d43739619f6e1bde0b389_a38c2fb74e68c4b25891f5e77b9fb8b22" class="edge">
<title>a522b40ada52d43739619f6e1bde0b389:e&#45;&gt;a38c2fb74e68c4b25891f5e77b9fb8b22:w</title>
<path   d="M281,-101.5C281,-101.5 317,-46.5 317,-46.5 317,-46.5 367.86,-29.24 389.71,-21.82"/>
<polygon   points="391.16,-25.03 399.5,-18.5 388.91,-18.4 391.16,-25.03"/>
</g>
</g>
</svg>
