<?xml version="1.0" encoding="UTF-8" standalone="no"?>
<!DOCTYPE svg PUBLIC "-//W3C//DTD SVG 1.1//EN"
 "http://www.w3.org/Graphics/SVG/1.1/DTD/svg11.dtd">
<!-- Generated by graphviz version 2.46.1 (20210213.1702)
 -->
<!-- Title: G Pages: 1 -->
<svg width="656pt" height="540pt"
 viewBox="0.00 0.00 656.00 540.00" xmlns="http://www.w3.org/2000/svg" xmlns:xlink="http://www.w3.org/1999/xlink">
<g id="graph0" class="graph" transform="scale(1 1) rotate(0) translate(4 536)">
<title>G</title>
<!-- bbbbbbbbbbbbbbbbbbbbbbbbbbbbbbbbb -->
<g id="bbbbbbbbbbbbbbbbbbbbbbbbbbbbbbbbb" class="node">
<title>bbbbbbbbbbbbbbbbbbbbbbbbbbbbbbbbb</title>
<ellipse   cx="18" cy="-238.5" rx="18" ry="18"/>
</g>
<!-- t92ad3bb4b98949dabd59aa32f53b32ee -->
<g id="t92ad3bb4b98949dabd59aa32f53b32ee" class="node">
<title>t92ad3bb4b98949dabd59aa32f53b32ee</title>
<polygon   points="72,-220.5 72,-256.5 126,-256.5 126,-220.5 72,-220.5"/>
<text text-anchor="middle" x="99" y="-234.8" font-family="Times New Roman,serif" font-size="14.00">test</text>
</g>
<!-- bbbbbbbbbbbbbbbbbbbbbbbbbbbbbbbbb&#45;&gt;t92ad3bb4b98949dabd59aa32f53b32ee -->
<g id="bbbbbbbbbbbbbbbbbbbbbbbbbbbbbbbbb_t92ad3bb4b98949dabd59aa32f53b32ee" class="edge">
<title>bbbbbbbbbbbbbbbbbbbbbbbbbbbbbbbbb:e&#45;&gt;t92ad3bb4b98949dabd59aa32f53b32ee:w</title>
<path   d="M36,-238.5C36,-238.5 51.14,-238.5 61.78,-238.5"/>
<polygon   points="62,-242 72,-238.5 62,-235 62,-242"/>
</g>
<!-- tfd5f2f0164e749e581e3a4049b5d9cc0 -->
<g id="tfd5f2f0164e749e581e3a4049b5d9cc0" class="node">
<title>tfd5f2f0164e749e581e3a4049b5d9cc0</title>
<polygon   points="194.5,-440.5 194.5,-476.5 248.5,-476.5 248.5,-440.5 194.5,-440.5"/>
<text text-anchor="middle" x="221.5" y="-454.8" font-family="Times New Roman,serif" font-size="14.00">test2</text>
</g>
<!-- t92ad3bb4b98949dabd59aa32f53b32ee&#45;&gt;tfd5f2f0164e749e581e3a4049b5d9cc0 -->
<g id="t92ad3bb4b98949dabd59aa32f53b32ee_tfd5f2f0164e749e581e3a4049b5d9cc0" class="edge">
<title>t92ad3bb4b98949dabd59aa32f53b32ee:e&#45;&gt;tfd5f2f0164e749e581e3a4049b5d9cc0:w</title>
<path   d="M126,-238.5C126,-238.5 177.45,-406.19 190.51,-448.76"/>
<polygon   points="187.22,-449.97 193.5,-458.5 193.91,-447.91 187.22,-449.97"/>
</g>
<!-- taa542ab69f2e4106b5de9befae2b16ca -->
<g id="taa542ab69f2e4106b5de9befae2b16ca" class="node">
<title>taa542ab69f2e4106b5de9befae2b16ca</title>
<polygon   points="194.5,-220.5 194.5,-256.5 248.5,-256.5 248.5,-220.5 194.5,-220.5"/>
<text text-anchor="middle" x="221.5" y="-234.8" font-family="Times New Roman,serif" font-size="14.00">test3</text>
</g>
<!-- t92ad3bb4b98949dabd59aa32f53b32ee&#45;&gt;taa542ab69f2e4106b5de9befae2b16ca -->
<g id="t92ad3bb4b98949dabd59aa32f53b32ee_taa542ab69f2e4106b5de9befae2b16ca" class="edge">
<title>t92ad3bb4b98949dabd59aa32f53b32ee:e&#45;&gt;taa542ab69f2e4106b5de9befae2b16ca:w</title>
<path   d="M126,-238.5C126,-238.5 164.37,-238.5 183.25,-238.5"/>
<polygon   points="183.5,-242 193.5,-238.5 183.5,-235 183.5,-242"/>
</g>
<!-- a522b40ada52d43739619f6e1bde0b389 -->
<g id="a522b40ada52d43739619f6e1bde0b389" class="node">
<title>a522b40ada52d43739619f6e1bde0b389</title>
<polygon   points="162,-83.5 162,-119.5 281,-119.5 281,-83.5 162,-83.5"/>
<text text-anchor="middle" x="194.5" y="-97.8" font-family="Times New Roman,serif" font-size="14.00">1 papers</text>
<polyline   points="227,-83.5 227,-119.5 "/>
<text text-anchor="middle" x="254" y="-97.8" font-family="Times New Roman,serif" font-size="14.00">Others</text>
</g>
<!-- t92ad3bb4b98949dabd59aa32f53b32ee&#45;&gt;a522b40ada52d43739619f6e1bde0b389 -->
<g id="t92ad3bb4b98949dabd59aa32f53b32ee_a522b40ada52d43739619f6e1bde0b389" class="edge">
<title>t92ad3bb4b98949dabd59aa32f53b32ee:e&#45;&gt;a522b40ada52d43739619f6e1bde0b389:w</title>
<path   d="M126,-238.5C126,-238.5 151.16,-142.77 159.41,-111.35"/>
<polygon   points="162.84,-112.06 162,-101.5 156.07,-110.28 162.84,-112.06"/>
</g>
<!-- a6a0f2f9ec983497ab6be095afc1e612a -->
<g id="a6a0f2f9ec983497ab6be095afc1e612a" class="node">
<title>a6a0f2f9ec983497ab6be095afc1e612a</title>
<polygon   points="343.5,-495.5 343.5,-531.5 621.5,-531.5 621.5,-495.5 343.5,-495.5"/>
<text text-anchor="middle" x="482.5" y="-509.8" font-family="Times New Roman,serif" font-size="14.00">First vs. best improvement: An empirical study</text>
</g>
<!-- tfd5f2f0164e749e581e3a4049b5d9cc0&#45;&gt;a6a0f2f9ec983497ab6be095afc1e612a -->
<g id="tfd5f2f0164e749e581e3a4049b5d9cc0_a6a0f2f9ec983497ab6be095afc1e612a" class="edge">
<title>tfd5f2f0164e749e581e3a4049b5d9cc0:e&#45;&gt;a6a0f2f9ec983497ab6be095afc1e612a:w</title>
<path   d="M249.5,-458.5C249.5,-458.5 310.31,-494.46 333.58,-508.23"/>
<polygon   points="332.11,-511.42 342.5,-513.5 335.67,-505.4 332.11,-511.42"/>
</g>
<!-- a0704215b4be34bfb9419f4a728cd4c1d -->
<g id="a0704215b4be34bfb9419f4a728cd4c1d" class="node">
<title>a0704215b4be34bfb9419f4a728cd4c1d</title>
<polygon   points="327.5,-440.5 327.5,-476.5 637.5,-476.5 637.5,-440.5 327.5,-440.5"/>
<text text-anchor="middle" x="482.5" y="-454.8" font-family="Times New Roman,serif" font-size="14.00">Subclasses of k&#45;trees: Characterization and recogn...</text>
</g>
<!-- tfd5f2f0164e749e581e3a4049b5d9cc0&#45;&gt;a0704215b4be34bfb9419f4a728cd4c1d -->
<g id="tfd5f2f0164e749e581e3a4049b5d9cc0_a0704215b4be34bfb9419f4a728cd4c1d" class="edge">
<title>tfd5f2f0164e749e581e3a4049b5d9cc0:e&#45;&gt;a0704215b4be34bfb9419f4a728cd4c1d:w</title>
<path   d="M249.5,-458.5C249.5,-458.5 295.56,-458.5 316.43,-458.5"/>
<polygon   points="316.5,-462 326.5,-458.5 316.5,-455 316.5,-462"/>
</g>
<!-- add24fce9c2214de4a4744abdff92391c -->
<g id="add24fce9c2214de4a4744abdff92391c" class="node">
<title>add24fce9c2214de4a4744abdff92391c</title>
<polygon   points="325.5,-385.5 325.5,-421.5 639.5,-421.5 639.5,-385.5 325.5,-385.5"/>
<text text-anchor="middle" x="482.5" y="-399.8" font-family="Times New Roman,serif" font-size="14.00">Monotonicity of the minimum cardinality of an iden...</text>
</g>
<!-- taa542ab69f2e4106b5de9befae2b16ca&#45;&gt;add24fce9c2214de4a4744abdff92391c -->
<g id="taa542ab69f2e4106b5de9befae2b16ca_add24fce9c2214de4a4744abdff92391c" class="edge">
<title>taa542ab69f2e4106b5de9befae2b16ca:e&#45;&gt;add24fce9c2214de4a4744abdff92391c:w</title>
<path   d="M249.5,-238.5C249.5,-238.5 304.39,-359.25 320.25,-394.16"/>
<polygon   points="317.18,-395.84 324.5,-403.5 323.55,-392.95 317.18,-395.84"/>
</g>
<!-- a31ebe75f28854391948666df50aeb9a8 -->
<g id="a31ebe75f28854391948666df50aeb9a8" class="node">
<title>a31ebe75f28854391948666df50aeb9a8</title>
<polygon   points="317,-330.5 317,-366.5 648,-366.5 648,-330.5 317,-330.5"/>
<text text-anchor="middle" x="482.5" y="-344.8" font-family="Times New Roman,serif" font-size="14.00">The game chromatic index of forests of maximum deg...</text>
</g>
<!-- taa542ab69f2e4106b5de9befae2b16ca&#45;&gt;a31ebe75f28854391948666df50aeb9a8 -->
<g id="taa542ab69f2e4106b5de9befae2b16ca_a31ebe75f28854391948666df50aeb9a8" class="edge">
<title>taa542ab69f2e4106b5de9befae2b16ca:e&#45;&gt;a31ebe75f28854391948666df50aeb9a8:w</title>
<path   d="M249.5,-238.5C249.5,-238.5 295.79,-313.94 311.7,-339.87"/>
<polygon   points="308.79,-341.81 317,-348.5 314.75,-338.15 308.79,-341.81"/>
</g>
<!-- a021e48b923d447e7b0caecc1b29da96b -->
<g id="a021e48b923d447e7b0caecc1b29da96b" class="node">
<title>a021e48b923d447e7b0caecc1b29da96b</title>
<polygon   points="418,-275.5 418,-311.5 547,-311.5 547,-275.5 418,-275.5"/>
<text text-anchor="middle" x="482.5" y="-289.8" font-family="Times New Roman,serif" font-size="14.00">Clutter nonidealness</text>
</g>
<!-- taa542ab69f2e4106b5de9befae2b16ca&#45;&gt;a021e48b923d447e7b0caecc1b29da96b -->
<g id="taa542ab69f2e4106b5de9befae2b16ca_a021e48b923d447e7b0caecc1b29da96b" class="edge">
<title>taa542ab69f2e4106b5de9befae2b16ca:e&#45;&gt;a021e48b923d447e7b0caecc1b29da96b:w</title>
<path   d="M249.5,-238.5C249.5,-238.5 317,-266.5 317,-266.5 317,-266.5 381.43,-283.98 406.6,-290.81"/>
<polygon   points="405.93,-294.26 416.5,-293.5 407.77,-287.5 405.93,-294.26"/>
</g>
<!-- a4d2af4efc84a4389bee247cf63a302c5 -->
<g id="a4d2af4efc84a4389bee247cf63a302c5" class="node">
<title>a4d2af4efc84a4389bee247cf63a302c5</title>
<polygon   points="331,-220.5 331,-256.5 634,-256.5 634,-220.5 331,-220.5"/>
<text text-anchor="middle" x="482.5" y="-234.8" font-family="Times New Roman,serif" font-size="14.00">Complexity results on restricted instances of a pa...</text>
</g>
<!-- taa542ab69f2e4106b5de9befae2b16ca&#45;&gt;a4d2af4efc84a4389bee247cf63a302c5 -->
<g id="taa542ab69f2e4106b5de9befae2b16ca_a4d2af4efc84a4389bee247cf63a302c5" class="edge">
<title>taa542ab69f2e4106b5de9befae2b16ca:e&#45;&gt;a4d2af4efc84a4389bee247cf63a302c5:w</title>
<path   d="M249.5,-238.5C249.5,-238.5 297.84,-238.5 319.37,-238.5"/>
<polygon   points="319.5,-242 329.5,-238.5 319.5,-235 319.5,-242"/>
</g>
<!-- a076fb692e35f405a9127db9c511fb2ac -->
<g id="a076fb692e35f405a9127db9c511fb2ac" class="node">
<title>a076fb692e35f405a9127db9c511fb2ac</title>
<polygon   points="318,-165.5 318,-201.5 647,-201.5 647,-165.5 318,-165.5"/>
<text text-anchor="middle" x="482.5" y="-179.8" font-family="Times New Roman,serif" font-size="14.00">Bounded&#45;hops power assignment in ad hoc wireless n...</text>
</g>
<!-- taa542ab69f2e4106b5de9befae2b16ca&#45;&gt;a076fb692e35f405a9127db9c511fb2ac -->
<g id="taa542ab69f2e4106b5de9befae2b16ca_a076fb692e35f405a9127db9c511fb2ac" class="edge">
<title>taa542ab69f2e4106b5de9befae2b16ca:e&#45;&gt;a076fb692e35f405a9127db9c511fb2ac:w</title>
<path   d="M249.5,-238.5C249.5,-238.5 291.11,-204.59 308.99,-190.03"/>
<polygon   points="311.46,-192.53 317,-183.5 307.04,-187.1 311.46,-192.53"/>
</g>
<!-- ae1e503d061b04abe8ea94ca2f92bb649 -->
<g id="ae1e503d061b04abe8ea94ca2f92bb649" class="node">
<title>ae1e503d061b04abe8ea94ca2f92bb649</title>
<polygon   points="337.5,-110.5 337.5,-146.5 627.5,-146.5 627.5,-110.5 337.5,-110.5"/>
<text text-anchor="middle" x="482.5" y="-124.8" font-family="Times New Roman,serif" font-size="14.00">Hamiltonian path saturated graphs with small size</text>
</g>
<!-- taa542ab69f2e4106b5de9befae2b16ca&#45;&gt;ae1e503d061b04abe8ea94ca2f92bb649 -->
<g id="taa542ab69f2e4106b5de9befae2b16ca_ae1e503d061b04abe8ea94ca2f92bb649" class="edge">
<title>taa542ab69f2e4106b5de9befae2b16ca:e&#45;&gt;ae1e503d061b04abe8ea94ca2f92bb649:w</title>
<path   d="M249.5,-238.5C249.5,-238.5 310.29,-161.63 330.24,-136.41"/>
<polygon   points="333.04,-138.51 336.5,-128.5 327.55,-134.17 333.04,-138.51"/>
</g>
<!-- a58f3b8932ddb4716bad6ba1f691692a7 -->
<g id="a58f3b8932ddb4716bad6ba1f691692a7" class="node">
<title>a58f3b8932ddb4716bad6ba1f691692a7</title>
<polygon   points="324.5,-55.5 324.5,-91.5 640.5,-91.5 640.5,-55.5 324.5,-55.5"/>
<text text-anchor="middle" x="482.5" y="-69.8" font-family="Times New Roman,serif" font-size="14.00">An annotated bibliography of combinatorial optimiz...</text>
</g>
<!-- taa542ab69f2e4106b5de9befae2b16ca&#45;&gt;a58f3b8932ddb4716bad6ba1f691692a7 -->
<g id="taa542ab69f2e4106b5de9befae2b16ca_a58f3b8932ddb4716bad6ba1f691692a7" class="edge">
<title>taa542ab69f2e4106b5de9befae2b16ca:e&#45;&gt;a58f3b8932ddb4716bad6ba1f691692a7:w</title>
<path   d="M249.5,-238.5C249.5,-238.5 303.66,-117.75 319.31,-82.84"/>
<polygon   points="322.6,-84.06 323.5,-73.5 316.21,-81.19 322.6,-84.06"/>
</g>
<!-- a1069d9bbf7734390ac5aa541c0cccb11 -->
<g id="a1069d9bbf7734390ac5aa541c0cccb11" class="node">
<title>a1069d9bbf7734390ac5aa541c0cccb11</title>
<polygon   points="400.5,-0.5 400.5,-36.5 564.5,-36.5 564.5,-0.5 400.5,-0.5"/>
<text text-anchor="middle" x="482.5" y="-14.8" font-family="Times New Roman,serif" font-size="14.00">Path&#45;fan Ramsey numbers</text>
</g>
<!-- a522b40ada52d43739619f6e1bde0b389&#45;&gt;a1069d9bbf7734390ac5aa541c0cccb11 -->
<g id="a522b40ada52d43739619f6e1bde0b389_a1069d9bbf7734390ac5aa541c0cccb11" class="edge">
<title>a522b40ada52d43739619f6e1bde0b389:e&#45;&gt;a1069d9bbf7734390ac5aa541c0cccb11:w</title>
<path   d="M281,-101.5C281,-101.5 317,-46.5 317,-46.5 317,-46.5 367.86,-29.24 389.71,-21.82"/>
<polygon   points="391.16,-25.03 399.5,-18.5 388.91,-18.4 391.16,-25.03"/>
</g>
</g>
</svg>
