<svg xmlns="http://www.w3.org/2000/svg" viewBox="0 0 180.65 258.84"><defs><style>.cls-1{fill:#55101d;}.cls-2{fill:#e4fdfa;}.cls-3{fill:#4c0312;}.cls-4{fill:#72313c;}.cls-5{fill:#32cfa7;}.cls-6{fill:#3ae5bb;}.cls-7{fill:#33615f;}.cls-8{fill:#33736e;}.cls-9{fill:#deb7be;}.cls-10{fill:#2bb18f;}.cls-11{fill:#be8891;}.cls-12{fill:#398c81;}.cls-13{fill:#af747e;}.cls-14{fill:#5d847e;}.cls-15{fill:#d7acb4;}.cls-16{fill:#c6fcfa;}.cls-17{fill:#b5faf3;}.cls-18{fill:#9a5b66;}.cls-19{fill:#884751;}.cls-20{fill:#c9959e;}.cls-21{fill:#efd6da;}.cls-22{fill:#83bab0;}.cls-23{fill:#a2636d;}</style></defs><g id="Layer_2" data-name="Layer 2"><g id="Layer_1-2" data-name="Layer 1"><path class="cls-1" d="M128.22,258.84l-23.06-.58-1,0c-9.79-.51-19.59-1-29.37-1.56-5.75-.35-11.51-.76-17.22-1.48-4.41-.56-8.79-1.54-13.14-2.52-5.47-1.22-11-2.48-16.35-4A53.07,53.07,0,0,1,7.63,238.1a16.92,16.92,0,0,1-5.78-8.72,4.83,4.83,0,0,1,.76.25c3.83,2,7.47,4.62,11.52,6,6.75,2.35,13.74,4,20.67,5.84,3.78,1,7.63,1.69,11.46,2.49,3.46.72,6.91,1.52,10.39,2.08,4.67.74,9.36,1.29,14.05,1.9,2.91.38,5.82.75,8.74,1.06,3.67.39,7.35.88,11,1,5,.22,9.92.15,14.87.2.08,0,.15-.14.39-.37-4.68-3.12-8.6-7.15-14.41-8.6-6.57-1.65-12.94-4.13-19.4-6.24-4.45-1.45-8.87-3-13.37-4.29-9.2-2.64-18.47-5-27.67-7.72a12.72,12.72,0,0,1-5.55-2.91,75.44,75.44,0,0,1-6.41-8.56c-1.73-2.44-3.33-5-5-7.45a7.73,7.73,0,0,1-1.44-5.84c.25-1.41.42-3.11-1.65-3.68a1.44,1.44,0,0,1-.77-.78c-1-2.19-2.05-4.35-2.91-6.59-.5-1.3-.56-2.76-1-4.08-.81-2.43-1.85-4.79-2.62-7.23A3.44,3.44,0,0,0,0,173.31q.09-5.72.17-11.41c0-1.19,0-2.38,0-3.57,0-6.25.05-12.5,0-18.74,0-4.18-.14-8.35-.21-12.52.29.31.76.58.85.94q1.46,5.53,2.78,11.09c1.28,5.34,2.44,10.71,3.82,16A68.49,68.49,0,0,0,10.81,166c2.3,5.17,5.11,10.11,7.8,15.09,1.74,3.25,3.43,6.48,6.54,8.83s5.56,5.38,8.62,7.71c6.15,4.67,12.45,9.15,18.8,13.56,5.81,4,11.75,7.89,17.68,11.78a3.56,3.56,0,0,0,2.09.51,43.27,43.27,0,0,0,4.65-.75c1.51-.29,2.47.16,2.58,1.81a2.22,2.22,0,0,0,1.71,2.11A8.93,8.93,0,0,1,84,228.08c2.21,1.86,4.37,3.78,6.45,5.78s4.3,3.38,7.36,2.3c1.58-.56,3.23-.93,4.83-1.44,3.73-1.18,7.49-2.28,11.15-3.63,1.74-.64,2.46.13,3.24,1.38,1,1.52,2,3,3,4.44,2.63,3.67,5.36,7.28,6.75,11.67.35,1.12.66,2.27,1,3.4C128,254.27,128.08,256.55,128.22,258.84Z"/><path class="cls-2" d="M63.54.31l1-.08C64.36,1.52,65,1.9,66.2,2.28c2.32.72,4.39,2,7,2.09,2.93.16,3.48,2,1.78,4.45-.16.22-.34.42-.5.64-2.09,2.95-1.33,7.52,1.76,9.34a27.89,27.89,0,0,0,6.21,2.78,101.62,101.62,0,0,0,11.5,2.85c4,.71,8.17,1.08,12.28,1.43,4.65.4,9.32.74,14,.87,3.51.1,7-.2,10.54-.27,3-.06,5.95.05,8.91-.1a16.92,16.92,0,0,0,3.54-.91l5.57-1c1.79,1.63,1.6,3.75,1.45,5.85-.36-.16-1-.25-1-.5-.42-1.44-1.34-1.18-2.32-.79a35,35,0,0,1-5.17,2,144.41,144.41,0,0,1-14.25,2.61c-7.08.79-14.19,1.3-21.3,1.62-5.7.26-11.42,0-17.13.08a67.45,67.45,0,0,1-17.18-1.68C67.19,32.52,62.46,31.59,58,30c-4.88-1.71-7.85-5.18-6.69-10.61a1.55,1.55,0,0,0-1.51-2.06c-1.43,0-2.86.39-4.3.48-2.41.14-3.88,2.29-6.45,2.52-3.37.32-6.6,1.87-10,2.63C26.08,23.66,23,24,20,24.44c-2.46.32-4.94.48-7.41.71l-3.27.29c.71,1.2.65,1.42,3.54,2.18C20.21,29.53,27.6,31.36,35,33c5.31,1.14,10.72,1.78,16.07,2.77,4.12.76,8.19,1.76,12.29,2.56,5.39,1,10.81,1.92,16.19,3,7,1.42,14.16,1.57,21.27,1.83,3.1.11,6.21-.11,9.31-.29,4.89-.29,9.77-.65,14.65-1,.92-.07,2-.78,2.66-.44s.7,1.61,1,2.48L128.44,75a3.27,3.27,0,0,1-1.07-.33c-1.8-1.4-3.58-2.84-5.33-4.29Q115.2,64.67,108.38,59c-4-3.34-8-6.7-12.06-10a4.51,4.51,0,0,0-2-.85c-5.31-.89-10.62-1.76-15.94-2.54C73.18,44.81,68,44.14,62.85,43.5c-4.15-.52-8.32-.82-12.45-1.42-5.1-.73-10.18-1.56-15.23-2.56-4.7-.93-9.4-1.93-14-3.27a34.69,34.69,0,0,1-17-10.46c-.35-2.18-.69-4.35-1-6.53,2-3.66,5.32-5.92,8.84-7.66A97.35,97.35,0,0,1,40.23,2.75C47.52,1.61,54.89,1,62.23.21a2,2,0,0,1,.64.09l.33.43Z"/><path class="cls-3" d="M0,173.31a3.44,3.44,0,0,1,3.49,2.61c.77,2.44,1.81,4.8,2.62,7.23.44,1.32.5,2.78,1,4.08.86,2.24,1.9,4.4,2.91,6.59a1.44,1.44,0,0,0,.77.78c2.07.57,1.9,2.27,1.65,3.68a7.73,7.73,0,0,0,1.44,5.84c1.67,2.48,3.27,5,5,7.45a75.44,75.44,0,0,0,6.41,8.56A12.72,12.72,0,0,0,30.88,223c9.2,2.67,18.47,5.08,27.67,7.72,4.5,1.28,8.92,2.84,13.37,4.29,6.46,2.11,12.83,4.59,19.4,6.24,5.81,1.45,9.73,5.48,14.41,8.6-.24.23-.31.37-.39.37-5,0-9.92,0-14.87-.2-3.68-.16-7.36-.65-11-1-2.92-.31-5.83-.68-8.74-1.06-4.69-.61-9.38-1.16-14.05-1.9-3.48-.56-6.93-1.36-10.39-2.08-3.83-.8-7.68-1.5-11.46-2.49-6.93-1.81-13.92-3.49-20.67-5.84-4.05-1.4-7.69-4-11.52-6a4.83,4.83,0,0,0-.76-.25c-.54-1.95-1.51-3.9-1.53-5.85-.15-11.95-.06-23.9-.09-35.85C.22,182.89.11,178.1,0,173.31Z"/><path class="cls-4" d="M127.81,252c-.33-1.13-.64-2.28-1-3.4-1.39-4.39-4.12-8-6.75-11.67-1-1.46-2.09-2.92-3-4.44-.78-1.25-1.5-2-3.24-1.38-3.66,1.35-7.42,2.45-11.15,3.63-1.6.51-3.25.88-4.83,1.44-3.06,1.08-5.26-.28-7.36-2.3s-4.24-3.92-6.45-5.78a8.93,8.93,0,0,0-2.72-1.42,2.22,2.22,0,0,1-1.71-2.11c-.11-1.65-1.07-2.1-2.58-1.81a43.27,43.27,0,0,1-4.65.75,3.56,3.56,0,0,1-2.09-.51c-5.93-3.89-11.87-7.74-17.68-11.78-6.35-4.41-12.65-8.89-18.8-13.56-3.06-2.33-5.56-5.39-8.62-7.71s-4.8-5.58-6.54-8.83c-2.69-5-5.5-9.92-7.8-15.09a68.49,68.49,0,0,1-3.34-10.88c-1.38-5.32-2.54-10.69-3.82-16Q2.31,133.53.87,128c-.09-.36-.56-.63-.85-.94,0-1.86,0-3.72,0-5.58.08-.31.15-.62.23-.92a8.5,8.5,0,0,1,1.32,2c.64,2.18,1.43,4.21,3.34,5.64a7.58,7.58,0,0,1,1.47,1.47c2.07,2.71,4.15,5.42,6.16,8.18,1.65,2.26,3.2,4.6,4.8,6.9l-5,5.82,7.27,1.08a11.66,11.66,0,0,0,.43,2.05c1.24,2.94,3,5.81.87,9.07a1.32,1.32,0,0,0-.25.93,6.32,6.32,0,0,0,1,2.45c1.75,1.85,3.67,3.54,5.51,5.31a2.19,2.19,0,0,1,.48,3c-.65,1.14-.95,2.49.6,3.36l-.56,1.82,1.41-.54a3.09,3.09,0,0,1,2.64,2.54c.11.36.08.91.31,1.06,1.68,1,1.45,2.74,1.71,4.32.42,2.49.92,4.83,3.9,5.82,5,1.68,10,3.69,15,5.54,2.06.76,3.76,1.85,4.48,4.09a2.59,2.59,0,0,0,.89,1.12c2.23,1.82,4.5,3.59,6.73,5.42,2.68,2.2,5.48,4,9.16,3.94,1,0,2.21.08,2.67,1.42.78,2.26,1.69,4.47,2.43,6.73.37,1.15.86,1.39,2,1,5.33-1.7,10.7-3.27,16-4.95,2.94-.93,5.85-2,8.77-3l1.63.4c2.37,4.5,4.71,9,7.12,13.5,1.14,2.13,1.5,2.21,3.71,1.2,2.66-1.21,5.3-2.47,8-3.68.77-.34,1.59-.57,2.39-.86-.06,5.06-.05,10.11-.2,15.17C128.31,244,128,248,127.81,252ZM27.92,180.21l-.65-.5-1.73,2.42.51.38Z"/><path class="cls-5" d="M180.55,60.54c0,3.32.08,6.63.08,9.95q0,14-.08,28.07c-7.59,2.08-15.18,4.11-22.74,6.25-2.6.73-5.12,1.73-7.67,2.61q.12-22.62.25-45.24a5.14,5.14,0,0,1,3.21-1.5,15.37,15.37,0,0,0,4.26-.81,7.33,7.33,0,0,1,4.12-.28,17.76,17.76,0,0,0,3.62-.18c1.81-.07,3.63-.12,5.45-.12a22.15,22.15,0,0,0,4.14.08c1.86-.35,3.62-1,4.9,1C180.15,60.51,180.4,60.5,180.55,60.54Z"/><path class="cls-6" d="M180.55,60.54c-.15,0-.4,0-.46-.13-1.28-2.08-3-1.39-4.9-1a22.15,22.15,0,0,1-4.14-.08c-1.82,0-3.64.05-5.45.12a17.76,17.76,0,0,1-3.62.18,7.33,7.33,0,0,0-4.12.28,15.37,15.37,0,0,1-4.26.81,5.14,5.14,0,0,0-3.21,1.5c0-2.71,0-5.42,0-8.14l-.12-12.85V30.34c.15-2.1.34-4.22-1.45-5.85-.93-1.86-1.87-3.71-2.81-5.57,5.23-.17,10.46-.25,15.69-.52,5.92-.31,11.84-.8,17.76-1.21.33,0,.65,0,1,0a3.14,3.14,0,0,1,.21.78Q180.61,39.25,180.55,60.54Z"/><path class="cls-7" d="M180.46,193.28l.12,24.23c0,3.5.06,7-.05,10.48a2.92,2.92,0,0,1-1.15,2.07q-13.17,8.22-26.45,16.26a14.57,14.57,0,0,1-3.19,1.06v-9.8q0-14.78,0-29.55l.09-.95a16.87,16.87,0,0,0,2.14-.74c3-1.47,6-3.05,9-4.48,3.73-1.74,7.51-3.39,11.27-5.05C175,195.61,177.72,194.45,180.46,193.28Z"/><path class="cls-8" d="M180.46,193.28c-2.74,1.17-5.48,2.33-8.21,3.53-3.76,1.66-7.54,3.31-11.27,5.05-3,1.43-6,3-9,4.48a16.87,16.87,0,0,1-2.14.74c0-.33-.08-.65-.08-1l.36-41.31a31.54,31.54,0,0,0,3.37,0c3.76-.41,7.52-.8,11.26-1.36,4.09-.63,8.11-2.09,12.32-.91,1.16.33,2.27.84,3.41,1.27,0,7.18.08,14.35.09,21.52C180.55,188,180.49,190.62,180.46,193.28Z"/><path class="cls-9" d="M3.16,19.26c.35,2.18.69,4.35,1,6.53,0,1.66.09,3.32,0,5-.27,3.62,1.75,6,4.27,8.11a22.73,22.73,0,0,0,9.82,4.63c3.37.71,6.87.83,10.29,1.34s6.63.94,9.17,3.69a69.25,69.25,0,0,0,6.35,5.6c4.12,3.46,8.29,6.87,12.41,10.34,3.16,2.67,6.25,5.42,9.39,8.11,2.59,2.23,5.21,4.43,7.82,6.65-2.41-.17-4.86-.16-7.24-.55-4.29-.7-8.54-1.59-12.78-2.5-3.09-.66-6.14-1.45-9.2-2.21s-6-1.55-9.06-2.35A6.56,6.56,0,0,1,33.72,71c-2.23-1.33-4.43-2.48-6.15-4.77A131.2,131.2,0,0,0,16.93,54.36a38.44,38.44,0,0,0-6.59-5.57C7.58,47,5.56,45.25,5,41.62c-.5-3.06-2.38-5.91-3.71-8.82-.16-.36-.73-.54-1.11-.8C-.11,27.46.2,23.05,3.16,19.26Z"/><path class="cls-10" d="M150.14,107.42c2.55-.88,5.07-1.88,7.67-2.61,7.56-2.14,15.15-4.17,22.74-6.25q0,13.77,0,27.52c0,2-.09,3.92-.13,5.89-4.11.68-8.28,1.13-12.31,2.13-4.48,1.1-8.82,2.73-13.24,4.1-1.6.49-3.23.88-4.85,1.31q0-15.8,0-31.61A2.08,2.08,0,0,1,150.14,107.42Z"/><path class="cls-11" d="M.26,80.54Q.2,62.33.12,44.14H1l.64,1c.22,3.52.47,7,.67,10.57A5.63,5.63,0,0,0,6.09,61c.59.24.93,1.08,1.38,1.65S8.22,64,8.8,64.27c4,1.67,8.07,3.21,12.12,4.8a13.15,13.15,0,0,0,2.94,1.35c2,.37,3.72,2.18,6,1.39.27-.1.87.37,1.1.72a9.41,9.41,0,0,1,.75,1.78c.82,3.48,1.54,7,2.48,10.44,1.73,6.37,3.59,12.71,5.39,19.06-1,.1-2.09.57-2.89.25a33.47,33.47,0,0,1-7.4-3.7c-4.09-3-7.95-6.43-11.72-9.87a51.24,51.24,0,0,1-5.93-6.64c-1.39-1.8-2.31-2-3.69-.08a10.35,10.35,0,0,0-.73,1.45c-.45.84-3.23,1.57-3.74.86C2.64,84.86,1.15,83.94,1.45,82,1.52,81.6.68,81,.26,80.54Z"/><path class="cls-12" d="M150,139.51c1.62-.43,3.25-.82,4.85-1.31,4.42-1.37,8.76-3,13.24-4.1,4-1,8.2-1.45,12.31-2.13,0,4.4.11,8.8.11,13.2,0,6.2-.05,12.4-.08,18.6-1.14-.43-2.25-.94-3.41-1.27-4.21-1.18-8.23.28-12.32.91-3.74.56-7.5,1-11.26,1.36a31.54,31.54,0,0,1-3.37,0c0-4,0-8,0-11.94,0-2.51-.09-5-.14-7.52C150,143.39,150,141.45,150,139.51Z"/><path class="cls-13" d="M.26,80.54C.68,81,1.52,81.6,1.45,82c-.3,1.92,1.19,2.84,2.06,4.06.51.71,3.29,0,3.74-.86A10.35,10.35,0,0,1,8,83.77c1.38-1.9,2.3-1.72,3.69.08a51.24,51.24,0,0,0,5.93,6.64c3.77,3.44,7.63,6.82,11.72,9.87a33.47,33.47,0,0,0,7.4,3.7c.8.32,1.92-.15,2.89-.25,0,.1,0,.21,0,.31.56,2.7,1.11,5.36,3,7.57a24.55,24.55,0,0,1,2.16,3.57c-.19,5.66-.42,11.31-.56,17-.08,3.27,0,6.55-.09,9.82,0,.49-.58,1.41-.8,1.38a25.9,25.9,0,0,1-3.41-.8,13.27,13.27,0,0,0,.13-3.86,47.31,47.31,0,0,0-2.16-5.61c-1-2.48-2.07-4.92-2.81-7.47A63.86,63.86,0,0,1,34,119.31a3.62,3.62,0,0,0-.61-1.12,28.35,28.35,0,0,0-8.89-9c-.83-.53-1.58-1.2-2.45-1.66-.58-.3-1.35-.23-1.94-.52-2.59-1.26-5.14-2.6-7.7-3.9l-9.42-2a1.85,1.85,0,0,0-.3.57c-.49,3.17-.92,6.34-1.47,9.5a32.57,32.57,0,0,1-1,3.68Z"/><path class="cls-14" d="M149.72,208q0,14.78,0,29.55v9.8c-3.13-.08-5.58,1.75-8.06,3.17-4,2.3-7.82,5-11.72,7.56a11.19,11.19,0,0,1-1.74.73c-.14-2.29-.27-4.57-.41-6.86.21-4,.5-8,.61-12,.15-5.06.14-10.11.2-15.17.06-1.77.11-3.55.17-5.33a7.83,7.83,0,0,0,5.51-2.73,15.26,15.26,0,0,1,3.55-2.45c1.65-.93,3.4-1.68,5.07-2.56C145.2,210.53,147.46,209.27,149.72,208Z"/><path class="cls-15" d="M1.59,45.13l-.64-1-.78-1c0-3.71,0-7.43,0-11.14.38.26,1,.44,1.11.8C2.6,35.71,4.48,38.56,5,41.62c.58,3.63,2.6,5.39,5.36,7.17a38.44,38.44,0,0,1,6.59,5.57A131.2,131.2,0,0,1,27.57,66.24c1.72,2.29,3.92,3.44,6.15,4.77a6.56,6.56,0,0,0,1.69.61c3,.8,6,1.59,9.06,2.35s6.11,1.55,9.2,2.21c4.24.91,8.49,1.8,12.78,2.5,2.38.39,4.83.38,7.24.55l.33.32c.06.43.09.87.16,1.29q1,7.08,2.12,14.15a18.6,18.6,0,0,1-3.43-.11c-6.16-1.32-12.22-2.9-17.82-6-6.21-3.47-12.57-6.68-18.19-11.12-1.61-1.27-3.41-2.29-5.12-3.43A9.41,9.41,0,0,0,31,72.53c-.23-.35-.83-.82-1.1-.72-2.31.79-4-1-6-1.39a13.15,13.15,0,0,1-2.94-1.35l-2.51-1.63c-.34-.22-.83-.37-1-.68-.77-1.44-1.37-3-2.18-4.39-1.69-3-2.71-6.35-6-8.33a5.09,5.09,0,0,1-2.43-4.71c0-.42,0-1.11-.19-1.23C4.92,47.17,3.83,45.14,1.59,45.13Z"/><path class="cls-16" d="M143.19,25.45a16.92,16.92,0,0,1-3.54.91c-3,.15-5.94,0-8.91.1-3.51.07-7,.37-10.54.27-4.66-.13-9.33-.47-14-.87-4.11-.35-8.23-.72-12.28-1.43a101.62,101.62,0,0,1-11.5-2.85,27.89,27.89,0,0,1-6.21-2.78c-3.09-1.82-3.85-6.39-1.76-9.34.16-.22.34-.42.5-.64,1.7-2.47,1.15-4.29-1.78-4.45-2.6-.14-4.67-1.37-7-2.09-1.23-.38-1.84-.76-1.68-2L74,0a8.05,8.05,0,0,0,.7,1.41,35.7,35.7,0,0,1,3.45,4.3,13.42,13.42,0,0,0,3.94,4.49,53.38,53.38,0,0,0,17.42,7.93,79.33,79.33,0,0,0,14.07,2.34c6.83.6,13.71.8,20.58,1a63.06,63.06,0,0,0,7-.53c.69-.05,1.46-.33,1.56.82S143,24.22,143.19,25.45Z"/><path class="cls-17" d="M143.19,25.45c-.16-1.23-.36-2.44-.48-3.67s-.87-.87-1.56-.82a63.06,63.06,0,0,1-7,.53c-6.87-.22-13.75-.42-20.58-1a79.33,79.33,0,0,1-14.07-2.34A53.38,53.38,0,0,1,82.11,10.2a13.42,13.42,0,0,1-3.94-4.49,35.7,35.7,0,0,0-3.45-4.3A8.05,8.05,0,0,1,74,0a6.92,6.92,0,0,1,2,.88A47.07,47.07,0,0,0,90.7,9.21q7.56,2.88,15.32,5.17a108,108,0,0,0,24.75,3.94c5.06.27,10.12.41,15.19.6l2.8,5.57Z"/><path class="cls-18" d="M.17,114.89a32.57,32.57,0,0,0,1-3.68c.55-3.16,1-6.33,1.47-9.5a1.85,1.85,0,0,1,.3-.57l9.42,2Q13,111,13.71,118.87a7.47,7.47,0,0,0,3.69,6.3c2.14,1.28,4.24,2.62,6.31,4A33.83,33.83,0,0,1,33,137.93a34.37,34.37,0,0,1,2,3.7l-3-.17-1.63-.28c-.89-1.18-1.82-2.34-2.68-3.54A38.69,38.69,0,0,0,16.12,126.5c-2.79-1.67-5.5-3.5-8.9-4.2-2.4-.5-5.06-1.55-6.07-4.43-.11-.31-.67-.45-1-.66Z"/><path class="cls-19" d="M.13,117.21c.35.21.91.35,1,.66,1,2.88,3.67,3.93,6.07,4.43,3.4.7,6.11,2.53,8.9,4.2a38.69,38.69,0,0,1,11.62,11.14c.86,1.2,1.79,2.36,2.68,3.54l-9.86,2.59-2.28,1h-1c-1.6-2.3-3.15-4.64-4.8-6.9-2-2.76-4.09-5.47-6.16-8.18a7.58,7.58,0,0,0-1.47-1.47c-1.91-1.43-2.7-3.46-3.34-5.64a8.5,8.5,0,0,0-1.32-2,.83.83,0,0,0-.21-.06Z"/><path class="cls-20" d="M.17,43.14l.78,1H.12C.14,43.81.15,43.47.17,43.14Z"/><path class="cls-16" d="M63.54.31,63.2.73,62.87.3Z"/><path class="cls-1" d="M0,120.51a.83.83,0,0,1,.21.06c-.08.3-.15.61-.23.92C0,121.16,0,120.84,0,120.51Z"/><path class="cls-21" d="M74,79.55l-.33-.32c-2.61-2.22-5.23-4.42-7.82-6.65-3.14-2.69-6.23-5.44-9.39-8.11C52.36,61,48.19,57.59,44.07,54.13a69.25,69.25,0,0,1-6.35-5.6c-2.54-2.75-5.84-3.2-9.17-3.69s-6.92-.63-10.29-1.34a22.73,22.73,0,0,1-9.82-4.63C5.92,36.8,3.9,34.38,4.17,30.76c.12-1.65,0-3.31,0-5a34.69,34.69,0,0,0,17,10.46c4.6,1.34,9.3,2.34,14,3.27,5,1,10.13,1.83,15.23,2.56,4.13.6,8.3.9,12.45,1.42,5.17.64,10.33,1.31,15.49,2.07,5.32.78,10.63,1.65,15.94,2.54a4.51,4.51,0,0,1,2,.85c4.05,3.3,8.05,6.66,12.06,10q6.83,5.68,13.66,11.39c1.75,1.45,3.53,2.89,5.33,4.29a3.27,3.27,0,0,0,1.07.33q0,21,0,42c0,6.76,0,13.52-.08,20.27a5,5,0,0,1-1.16-.84c-1.46-1.87-2.72-3.91-4.31-5.66-3.18-3.49-6.53-6.83-9.81-10.24-.67-2.68-1.37-5.35-2-8a84.32,84.32,0,0,1-2.18-10.66,4.46,4.46,0,0,0-3-4.14c-1.73-.79-3.52-1.47-5.16-2.4-2.55-1.44-5-3.1-7.48-4.59-3.17-1.89-6.38-3.69-9.57-5.53Z"/><path class="cls-17" d="M128.34,137.25c0-6.75.07-13.51.08-20.27q0-21,0-42l.06-31.12c.48,0,1.16-.1,1.41.16,1,1.07,2.12.52,3.2.43,2.07-.17,4.14-.39,6.21-.64a4.75,4.75,0,0,0,1.31-.53c1.39-.68,2.7-1.68,4.15-2a29,29,0,0,1,5.44-.11L150.34,54c0,2.72,0,5.43,0,8.14q-.12,22.62-.25,45.24a2.08,2.08,0,0,0-.11.48q0,15.81,0,31.61c0,1.94-.07,3.88-.11,5.82-1.25.8-2.56,1.53-3.76,2.4-2.13,1.54-4,3.7-6.36,4.64a16.79,16.79,0,0,0-8.13,6.65,2.65,2.65,0,0,1-2.93,1.49c-.08-3.3-.19-6.6-.24-9.89C128.42,146.16,128.39,141.71,128.34,137.25Z"/><path class="cls-16" d="M150.22,41.19a29,29,0,0,0-5.44.11c-1.45.29-2.76,1.29-4.15,2a4.75,4.75,0,0,1-1.31.53c-2.07.25-4.14.47-6.21.64-1.08.09-2.21.64-3.2-.43-.25-.26-.93-.12-1.41-.16-.32-.87-.42-2.15-1-2.48s-1.74.37-2.66.44c-4.88.37-9.76.73-14.65,1-3.1.18-6.21.4-9.31.29-7.11-.26-14.24-.41-21.27-1.83-5.38-1.08-10.8-2-16.19-3-4.1-.8-8.17-1.8-12.29-2.56C45.76,34.74,40.35,34.1,35,33c-7.44-1.6-14.83-3.43-22.2-5.34-2.89-.76-2.83-1-3.54-2.18l3.27-.29c2.47-.23,4.95-.39,7.41-.71,3-.4,6.1-.78,9.09-1.46,3.35-.76,6.58-2.31,10-2.63,2.57-.23,4-2.38,6.45-2.52,1.44-.09,2.87-.52,4.3-.48a1.55,1.55,0,0,1,1.51,2.06C50.12,24.84,53.09,28.31,58,30c4.49,1.57,9.22,2.5,13.86,3.63A67.45,67.45,0,0,0,89,35.33c5.71-.09,11.43.18,17.13-.08,7.11-.32,14.22-.83,21.3-1.62A144.41,144.41,0,0,0,141.69,31a35,35,0,0,0,5.17-2c1-.39,1.9-.65,2.32.79.07.25.67.34,1,.5C150.21,34,150.22,37.57,150.22,41.19Z"/><path class="cls-19" d="M105.81,214.25c-2.92,1-5.83,2.07-8.77,3-5.34,1.68-10.71,3.25-16,4.95-1.17.37-1.66.13-2-1-.74-2.26-1.65-4.47-2.43-6.73-.46-1.34-1.66-1.44-2.67-1.42-3.68.06-6.48-1.74-9.16-3.94-2.23-1.83-4.5-3.6-6.73-5.42a2.59,2.59,0,0,1-.89-1.12c-.72-2.24-2.42-3.33-4.48-4.09-5-1.85-9.93-3.86-15-5.54-3-1-3.48-3.33-3.9-5.82-.26-1.58,0-3.29-1.71-4.32-.23-.15-.2-.7-.31-1.06a3.09,3.09,0,0,0-2.64-2.54,18,18,0,0,1,1.13-1.58c1.71-1.94,3.46-3.86,5.19-5.79l.6-.24a39.67,39.67,0,0,0,4.29,4.57c2.76,2.16,5.75,4.05,8.68,6,1,.64,2,1.12,3.06,1.68.31-.1.79-.09.92-.3,1.27-2,2.49-4,3.72-6,2.41,2.86,4.87,5.68,7.22,8.58,3.7,4.55,7.35,9.15,11,13.75a2.71,2.71,0,0,0,2.75,1.3c1.2.72,2.38,1.46,3.6,2.15a104.49,104.49,0,0,0,20,9C102.8,212.84,104.29,213.61,105.81,214.25Z"/><path class="cls-18" d="M105.81,214.25c-1.52-.64-3-1.41-4.58-1.91a104.49,104.49,0,0,1-20-9c-1.22-.69-2.4-1.43-3.6-2.15l.66-.67c1.45-.25,2.92-.41,4.33-.77,5.42-1.4,10.82-2.85,16.22-4.31,1.25-.33,2.48-.77,3.71-1.16a11.65,11.65,0,0,0,1.46-.12c5.21-1.1,10.4-2.27,15.62-3.32,2.91-.58,5.87-1,8.8-1.47q0,7.37,0,14.73a35.52,35.52,0,0,0-3.39,1.32c-5.89,3-11.76,6.14-17.63,9.22Z"/><path class="cls-19" d="M107.44,214.65c5.87-3.08,11.74-6.18,17.63-9.22a35.52,35.52,0,0,1,3.39-1.32l.33,15.37c-.06,1.78-.11,3.56-.17,5.33-.8.29-1.62.52-2.39.86-2.66,1.21-5.3,2.47-8,3.68-2.21,1-2.57.93-3.71-1.2C112.15,223.67,109.81,219.15,107.44,214.65Z"/><path class="cls-19" d="M28.22,177.9c-1.55-.87-1.25-2.22-.6-3.36a2.19,2.19,0,0,0-.48-3c-1.84-1.77-3.76-3.46-5.51-5.31a6.32,6.32,0,0,1-1-2.45,1.32,1.32,0,0,1,.25-.93c2.11-3.26.37-6.13-.87-9.07a11.66,11.66,0,0,1-.43-2.05l6.58,1.08c-.68,1.81-1.45,3.27-.49,5.28,1.17,2.5,2.53,3.68,5.31,3a11.16,11.16,0,0,1,2.83-.66,7.25,7.25,0,0,1,2.31.89,14.25,14.25,0,0,1-.78,1.68c-.69,1.09-1.45,2.15-2.19,3.22-1,1.51-.84,2.15,1,2.88,0,.19-.09.39-.13.59a13.51,13.51,0,0,0-1.14,1.26C31.29,173.22,29.76,175.57,28.22,177.9Z"/><path class="cls-18" d="M34.12,169.05c-1.8-.73-2-1.37-1-2.88.74-1.07,1.5-2.13,2.19-3.22a14.25,14.25,0,0,0,.78-1.68,7.25,7.25,0,0,0-2.31-.89A11.16,11.16,0,0,0,31,161c-2.78.69-4.14-.49-5.31-3-1-2-.19-3.47.49-5.28l-6.58-1.08-7.27-1.08,5-5.82h1l.65,0,.66.65h0c1.37,1.67,2.45,3.78,4.17,4.89a105.92,105.92,0,0,0,10.36,5.41c.22.11.59-.07.89-.11l.64.31L39,158.21l.81.78,0,.69-2.41,4.46Z"/><path class="cls-11" d="M28.22,177.9c1.54-2.33,3.07-4.68,4.63-7A13.51,13.51,0,0,1,34,169.64l1.4,2.17c-1.73,1.93-3.48,3.85-5.19,5.79a18,18,0,0,0-1.13,1.58l-1.41.54Z"/><path class="cls-18" d="M27.92,180.21l-1.87,2.3-.51-.38,1.73-2.42Z"/><path class="cls-22" d="M128.79,219.48l-.33-15.37q0-7.37,0-14.73c0-1.2,0-2.41,0-3.61V167.43l.29-6.93a2.63,2.63,0,0,0,2.93-1.48,16.79,16.79,0,0,1,8.13-6.65c2.36-.94,4.23-3.1,6.36-4.64,1.2-.87,2.51-1.6,3.76-2.4.05,2.51.12,5,.14,7.52,0,4,0,8,0,11.94l-.36,41.31c0,.33.05.65.08,1l-.09.95c-2.26,1.24-4.52,2.5-6.8,3.71-1.67.88-3.42,1.63-5.07,2.56a15.26,15.26,0,0,0-3.55,2.45A7.83,7.83,0,0,1,128.79,219.48Z"/><path class="cls-20" d="M31.74,74.31c1.71,1.14,3.51,2.16,5.12,3.43,5.62,4.44,12,7.65,18.19,11.12,5.6,3.12,11.66,4.7,17.82,6A18.6,18.6,0,0,0,76.3,95a4.76,4.76,0,0,1,.32,1.08c.14,2.5.23,5,.35,7.49.22,4.73.42,9.45.71,14.17a2,2,0,0,0,1,1.42,8.36,8.36,0,0,0,2.56.39q7.08.36,14.17.65c5.65.25,11.3.47,17,.7-1.22,3.2-2.47,6.4-3.65,9.62-1.34,3.66-2.61,7.34-3.91,11a11.72,11.72,0,0,1-1.21-.48c-5.36-3-11.13-4.88-16.89-6.86-2.82-1-5.53-2.24-8.34-3.26a72.33,72.33,0,0,0-9.4-3.11c-5.35-1.15-10.81-1.81-15.72-4.49a3.69,3.69,0,0,0-1.27-.16l-3.52-4.28c.28-.41.86-.89.79-1.23A18.32,18.32,0,0,0,44,108c-1.39-1.34-2.87-2.59-4.32-3.89,0-.1,0-.21,0-.31-1.8-6.35-3.66-12.69-5.39-19.06C33.28,81.3,32.56,77.79,31.74,74.31Z"/><path class="cls-20" d="M1.59,45.13c2.24,0,3.33,2,5,3,.23.12.21.81.19,1.23A5.09,5.09,0,0,0,9.25,54c3.27,2,4.29,5.36,6,8.33.81,1.42,1.41,2.95,2.18,4.39.17.31.66.46,1,.68l2.51,1.63c-4.05-1.59-8.11-3.13-12.12-4.8-.58-.24-.89-1.1-1.33-1.66S6.68,61.2,6.09,61A5.63,5.63,0,0,1,2.26,55.7C2.06,52.17,1.81,48.65,1.59,45.13Z"/><path class="cls-23" d="M35,141.63a34.37,34.37,0,0,0-2-3.7,33.83,33.83,0,0,0-9.32-8.76c-2.07-1.38-4.17-2.72-6.31-4a7.47,7.47,0,0,1-3.69-6.3q-.66-7.86-1.31-15.71c2.56,1.3,5.11,2.64,7.7,3.9.59.29,1.36.22,1.94.52.87.46,1.62,1.13,2.45,1.66a28.35,28.35,0,0,1,8.89,9,3.62,3.62,0,0,1,.61,1.12,63.86,63.86,0,0,0,1.09,6.38c.74,2.55,1.85,5,2.81,7.47a47.31,47.31,0,0,1,2.16,5.61,13.19,13.19,0,0,1-.13,3.85Z"/><path class="cls-9" d="M35,141.63l4.92,1a24.45,24.45,0,0,0,3.41.81c.22,0,.79-.89.8-1.38.09-3.27,0-6.55.09-9.82.14-5.66.37-11.31.56-17l3.67,3.63L52,123.17c.28,1.52.55,3,.83,4.55-.13.64-.53,1.4-.32,1.89.37.86,1.07,2.15,1.71,2.2,1.27.09.27-1.16.5-1.77,0,0,0-.11,0-.17.26.08.53.13.78.23A45.23,45.23,0,0,1,69.7,139c1.86,1.69,4,3.2,4.39,6-.46.68-.92,1.37-1.39,2.05l-.34-.68c-.1-.19-.15-.44-.3-.56C68,142.38,63.8,139,59.73,135.45a4,4,0,0,0-3.39-1.14l-4,.32h-.64a8.72,8.72,0,0,1-1.92-1.29,35.42,35.42,0,0,1-2.2-3.23,20.53,20.53,0,0,0-.8,7.47c0,1.11.05,2.22.08,3.33-.09,2.17-.17,4.34-.26,6.51A49.28,49.28,0,0,0,41.46,145c-2.75-1-5.59-1.65-8.39-2.46l-1-1Z"/><path class="cls-11" d="M48.45,118.89l-3.67-3.63a24.55,24.55,0,0,0-2.16-3.57c-1.88-2.21-2.43-4.87-3-7.57,1.45,1.3,2.93,2.55,4.32,3.89a18.32,18.32,0,0,1,5.29,9.65C49.31,118,48.73,118.48,48.45,118.89Z"/><path class="cls-9" d="M112.36,120.89c-5.65-.23-11.3-.45-17-.7q-7.08-.3-14.17-.65a8.36,8.36,0,0,1-2.56-.39,2,2,0,0,1-1-1.42c-.29-4.72-.49-9.44-.71-14.17-.12-2.49-.21-5-.35-7.49A4.76,4.76,0,0,0,76.3,95q-1.06-7.08-2.12-14.15c-.07-.42-.1-.86-.16-1.29l9.69,5.6c3.19,1.84,6.4,3.64,9.57,5.53,2.51,1.49,4.93,3.15,7.48,4.59,1.64.93,3.43,1.61,5.16,2.4a4.46,4.46,0,0,1,3,4.14,84.32,84.32,0,0,0,2.18,10.66c.62,2.69,1.32,5.36,2,8Z"/><path class="cls-15" d="M32.05,141.46l1,1a10.58,10.58,0,0,1,2,1.76c1.69,2.54,3.26,5.16,4.87,7.75a7.5,7.5,0,0,1-1.25-.58c-1-.68-1.81-1.52-2.82-2.1-1.91-1.11-3.89-2.1-5.86-3.1a8.48,8.48,0,0,0-1.53-.46c-1.34-.45-2.66-1-4-1.31s-2.59-.46-3.89-.68l9.86-2.59Z"/><path class="cls-11" d="M20.56,143.77c1.3.22,2.62.36,3.89.68s2.68.86,4,1.31a12.58,12.58,0,0,0,1.19,1.67c2.51,2.54,5.14,5,6.35,8.48l-.36.05-.64-.31c-.42-.4-.83-.82-1.27-1.21-2.12-1.89-4.21-3.84-6.4-5.66s-3.93-5.1-7.75-3.32h0l-.66-.65-.65,0Z"/><path class="cls-15" d="M112.36,120.89l.7-.38c3.28,3.41,6.63,6.75,9.81,10.24,1.59,1.75,2.85,3.79,4.31,5.66a5,5,0,0,0,1.16.84c0,4.46.08,8.91.15,13.37,0,3.29.16,6.59.24,9.89q-.14,3.45-.29,6.92c-.73-.43-1.49-.8-2.18-1.29-6-4.21-13-5.87-20.08-7l-1.38-17.65c1.3-3.68,2.57-7.36,3.91-11C109.89,127.29,111.14,124.09,112.36,120.89Z"/><path class="cls-23" d="M78.28,200.53l-.66.67a2.71,2.71,0,0,1-2.75-1.3c-3.64-4.6-7.29-9.2-11-13.75-2.35-2.9-4.81-5.72-7.22-8.58Q58,173,59.28,168.39c2.61-.11,5.22-.19,7.83-.33,3.16-.16,4.16.42,5.58,3.22,1.62,3.2,3.41,6.33,4.9,9.59,1.62,3.55,3.16,7.14,2.1,11.3C79,194.89,78.74,197.74,78.28,200.53Z"/><path class="cls-18" d="M52,183.82c-1-.56-2.1-1-3.06-1.68-2.93-1.95-5.92-3.84-8.68-6A39.67,39.67,0,0,1,36,171.57l4-3.79.55-.08c3,2.59,6,5.21,7.94,8.82.66,1.23,1.4,2.65,3.19,2.7Z"/><path class="cls-11" d="M52,183.82c-.12-1.54-.24-3.07-.35-4.6s0-3.26,0-4.89c-.08-2.42-.17-4.84-.25-7.26L56,168c.12-1,.24-1.92.36-2.86l2.12,0,.83,3.29Q58,173,56.66,177.57c-1.23,2-2.45,4-3.72,6C52.81,183.73,52.33,183.72,52,183.82Z"/><path class="cls-20" d="M40,167.78l-4,3.79-.6.24L34,169.64c0-.2.08-.4.13-.59l3.28-4.91c.51.75,1,1.51,1.54,2.25C39.28,166.86,39.64,167.32,40,167.78Z"/><path class="cls-13" d="M59.28,168.39l-.83-3.29c-.3-1.41-.59-2.83-.89-4.24l-.81-3.43c0-.61,0-1.22,0-1.82.4-.63.07-1.8,1.52-1.6,4.6.63,9.22,1.14,13.84,1.7-.21,3.06-.42,6.12-.65,9.38,2-.31,4-.64,6-.94,6.9-1.07,13.81-2.14,20.72-3.17,2.67-.41,5.35-.73,8-1.1l-.64,2a2.24,2.24,0,0,0-.32.37c-3.51,6-7,12.05-10.55,18-2.29,3.83-4.79,7.53-7.16,11.31-.61,1-1.08,2-1.74,3.3a64.29,64.29,0,0,0,6.88.31,32.06,32.06,0,0,0,5.87-1.08c1.42-.36,2.76-.61,4.07.23-1.23.39-2.46.83-3.71,1.16-5.4,1.46-10.8,2.91-16.22,4.31-1.41.36-2.88.52-4.33.77.46-2.79.71-5.64,1.41-8.36,1.06-4.16-.48-7.75-2.1-11.3-1.49-3.26-3.28-6.39-4.9-9.59-1.42-2.8-2.42-3.38-5.58-3.22C64.5,168.2,61.89,168.28,59.28,168.39Z"/><path class="cls-11" d="M102.54,194.29c-1.31-.84-2.65-.59-4.07-.23a32.06,32.06,0,0,1-5.87,1.08,64.29,64.29,0,0,1-6.88-.31c.66-1.26,1.13-2.33,1.74-3.3,2.37-3.78,4.87-7.48,7.16-11.31,3.58-6,7-12,10.55-18a2.24,2.24,0,0,1,.32-.37c2.07,2.78,4.05,5.64,6.24,8.33,3.53,4.33,7,8.68,10.88,12.74a8.82,8.82,0,0,0,5.83,2.87c0,1.2,0,2.41,0,3.61-2.93.49-5.89.89-8.8,1.47-5.22,1.05-10.41,2.22-15.62,3.32A11.65,11.65,0,0,1,102.54,194.29Z"/><path class="cls-9" d="M57.56,160.86c.3,1.41.59,2.83.89,4.24l-2.12,0-3-.64-5.6-.61-1.91.57-4.26,2.27a15.69,15.69,0,0,1-.63-1.82c-.41-1.73-.76-3.47-1.13-5.21l0-.69c.29-1.25.58-2.5.86-3.75a6,6,0,0,1,4.12,2.65,47.12,47.12,0,0,0,3.35,4.39,1.62,1.62,0,0,0,1.21.54c1.34-.16,2.67-.47,4-.71a2.63,2.63,0,0,0,2.31-2.21c.29-1.42.48-2.86.71-4.3h.36c0,.6,0,1.21,0,1.82Z"/><path class="cls-20" d="M40.64,155.24c-.28,1.25-.57,2.5-.86,3.75l-.81-.78-3-2.3c-1.21-3.51-3.84-5.94-6.35-8.48a12.58,12.58,0,0,1-1.19-1.67,8.48,8.48,0,0,1,1.53.46c2,1,4,2,5.86,3.1,1,.58,1.86,1.42,2.82,2.1a7.5,7.5,0,0,0,1.25.58C40.17,153.08,40.41,154.16,40.64,155.24Z"/><path class="cls-13" d="M19.59,145.46c3.82-1.78,5.52,1.47,7.75,3.32s4.28,3.77,6.4,5.66c.44.39.85.81,1.27,1.21-.3,0-.67.22-.89.11a105.92,105.92,0,0,1-10.36-5.41C22,149.24,21,147.13,19.59,145.46Z"/><path class="cls-15" d="M39.81,159.68c.37,1.74.72,3.48,1.13,5.21a15.69,15.69,0,0,0,.63,1.82l-1,1-.55.08c-.35-.46-.71-.92-1.05-1.39-.52-.74-1-1.5-1.54-2.25Z"/><path class="cls-13" d="M36,155.91l3,2.3L35.65,156Z"/><path class="cls-13" d="M18.93,144.81l.66.65Z"/><path class="cls-20" d="M128.44,185.77a8.82,8.82,0,0,1-5.83-2.87c-3.83-4.06-7.35-8.41-10.88-12.74-2.19-2.69-4.17-5.55-6.24-8.33.22-.65.43-1.3.64-2,0-.23,0-.46.05-.7,7.12,1.09,14,2.75,20.08,7,.69.49,1.45.86,2.18,1.29Z"/><path class="cls-11" d="M106.18,159.18c0,.24,0,.47-.05.7-2.68.37-5.36.69-8,1.1-6.91,1-13.82,2.1-20.72,3.17-2,.3-4,.63-6,.94.23-3.26.44-6.32.65-9.38v-.13l9.53.65,3.3.32c-3.82-4.09-7.3-7.81-10.79-11.52-.35-2.81-2.53-4.32-4.39-6a45.23,45.23,0,0,0-14.22-8.92,6.94,6.94,0,0,0-.78-.22l-1.9-2.16c-.28-1.52-.55-3-.83-4.55a3.69,3.69,0,0,1,1.27.16c4.91,2.68,10.37,3.34,15.72,4.49a72.33,72.33,0,0,1,9.4,3.11c2.81,1,5.52,2.29,8.34,3.26,5.76,2,11.53,3.89,16.89,6.86a11.72,11.72,0,0,0,1.21.48Z"/><path class="cls-20" d="M46.91,140.92c0-1.11-.06-2.22-.08-3.33,1-.5,2.28-1.66,3-1.38,2,.74,1.86-.34,1.9-1.57h.64l.9,2.36,3.05-2.68a4,4,0,0,1,3.39,1.14C63.8,139,68,142.38,72.06,145.84c.15.12.2.37.3.56-1.66.68-3.3,1.38-5,2-1.26.48-2.56.86-3.83,1.28L51.34,138.06a15.3,15.3,0,0,1-1.77,1.48A29.1,29.1,0,0,1,46.91,140.92Z"/><path class="cls-21" d="M40.64,155.24c-.23-1.08-.47-2.16-.71-3.24-1.61-2.59-3.18-5.21-4.87-7.75a10.58,10.58,0,0,0-2-1.76c2.8.81,5.64,1.5,8.39,2.46a49.28,49.28,0,0,1,5.19,2.48c0,2.23,0,4.46-.1,6.69,0,.91.28,1.36,1.23,1.2,1.77.63,3.49,1.05,5.28,0a14.59,14.59,0,0,1,2.55-1l.73,1.35c-.23,1.44-.42,2.88-.71,4.3a2.63,2.63,0,0,1-2.31,2.21c-1.33.24-2.66.55-4,.71a1.62,1.62,0,0,1-1.21-.54,47.12,47.12,0,0,1-3.35-4.39A6,6,0,0,0,40.64,155.24Z"/><path class="cls-13" d="M47.78,155.32c-1,.16-1.26-.29-1.23-1.2.06-2.23.07-4.46.1-6.69s.17-4.34.26-6.51a29.1,29.1,0,0,0,2.66-1.38,15.3,15.3,0,0,0,1.77-1.48L63.56,149.7l-6.48,3c-1.7-2.25-3.34-4.54-5.11-6.73a10.43,10.43,0,0,0-4.19-3.58Z"/><path class="cls-15" d="M57.08,152.73l6.48-3c1.27-.42,2.57-.8,3.83-1.28,1.67-.64,3.31-1.34,5-2l.34.68c0,.33,0,.66,0,1a6.2,6.2,0,0,0-.62,1.78c-.09,1.91,0,3.82,0,5.73v.13c-4.62-.56-9.24-1.07-13.84-1.7-1.45-.2-1.12,1-1.52,1.6h-.36c-.25-.45-.49-.9-.73-1.35Z"/><path class="cls-21" d="M72.72,148.07c0-.33,0-.66,0-1,.47-.68.93-1.37,1.39-2.05,3.49,3.71,7,7.43,10.79,11.52l-3.3-.32Z"/><path class="cls-15" d="M51.75,134.64c0,1.23.09,2.31-1.9,1.57-.74-.28-2,.88-3,1.38a20.53,20.53,0,0,1,.8-7.47,35.42,35.42,0,0,0,2.2,3.23A8.72,8.72,0,0,0,51.75,134.64Z"/><path class="cls-20" d="M52.8,127.72l1.9,2.16c0,.05,0,.11,0,.16-.23.61.77,1.86-.5,1.77-.64-.05-1.34-1.34-1.71-2.2C52.27,129.12,52.67,128.36,52.8,127.72Z"/><path class="cls-15" d="M56.34,134.31,53.29,137l-.9-2.36Z"/><path class="cls-23" d="M40.54,167.7l1-1,4.26-2.27c.45.8.91,1.58,1.34,2.38,1.21,2.28,2.39,4.57,3.63,6.84.16.29.56.45.86.67,0,1.63,0,3.26,0,4.89-1.79-.05-2.53-1.47-3.19-2.7C46.54,172.91,43.57,170.29,40.54,167.7Z"/><path class="cls-13" d="M51.66,174.33c-.3-.22-.7-.38-.86-.67-1.24-2.27-2.42-4.56-3.63-6.84-.43-.8-.89-1.58-1.34-2.38l1.91-.57c-.47,1.55.52,1.95,1.71,2.21l2,1C51.49,169.49,51.58,171.91,51.66,174.33Z"/><path class="cls-15" d="M51.41,167.07l-2-1a12.19,12.19,0,0,1,2.08-.19c1.1.1,2,0,1.81-1.41l3,.64c-.12.94-.24,1.88-.36,2.86Z"/><path class="cls-15" d="M57.56,160.86l-.81-3.43Z"/><path class="cls-20" d="M53.34,164.48c.15,1.44-.71,1.51-1.81,1.41a12.19,12.19,0,0,0-2.08.19c-1.19-.26-2.18-.66-1.71-2.21Z"/><path class="cls-9" d="M72.72,148.07l8.86,8.16-9.53-.65c0-1.91,0-3.82,0-5.73A6.2,6.2,0,0,1,72.72,148.07Z"/><path class="cls-18" d="M57.08,152.73l-1.47,1.52a14.59,14.59,0,0,0-2.55,1c-1.79,1.1-3.51.68-5.28,0v-12.9A10.43,10.43,0,0,1,52,146C53.74,148.19,55.38,150.48,57.08,152.73Z"/></g></g></svg>